<svg xmlns="http://www.w3.org/2000/svg" viewBox="0 0 399 207"><defs><style>.cls-1{fill:#ffb419;}.cls-2,.cls-3,.cls-4{fill:#4b6496;}.cls-2{opacity:0.35;}.cls-4{stroke:#4b6496;}.cls-4,.cls-6{stroke-miterlimit:10;}.cls-5,.cls-6{fill:#fff;}.cls-6{stroke:#fff;stroke-width:0.5px;}</style></defs><g id="Layer_2" data-name="Layer 2"><g id="Guide"><path class="cls-1" d="M395.89,86.25h0a11.35,11.35,0,0,1-9.18,13.19l-52.1,9.43-21.1-19.23,69.12-12.53A11.4,11.4,0,0,1,395.89,86.25Z"/><path class="cls-2" d="M395.89,86.25h0a11.35,11.35,0,0,1-9.18,13.19l-52.1,9.43-21.1-19.23,69.12-12.53A11.4,11.4,0,0,1,395.89,86.25Z"/><path id="FullUP" class="cls-3" d="M5.15,75.05S3.48,70.9,7.66,69.23s4.17.83,10-2.49l5.85-.83s1.67,0,9.19-6.66,11.69-9.15,17.54-7.48S67.8,50.94,72,47.61s7.52-8.32,10.86-8.32,10.44-.88,12-5.24,3.31-5.43,6.13-6.78a32.71,32.71,0,0,0,6.91-4.95c.78-.77,2.44-2.42,6.91-3.48s7.3-7.37,9-8.92a26,26,0,0,1,8.37-5.13c3.21-1.07,6-3.2,9.53-3.49s17-3.39,22.88,1.16-.2,5.53-5.26,4.85c0,0-6.42-1.36-6.62.87a2.1,2.1,0,0,0,1.56,2.52s-5.16,3.87-7.3,4.55-4.09,4.36-6.52,5.52-7.59,4.75-5.06,6.4c0,0-3.7,2.71-4.67,4.84,0,0-2.63,1.94-5.36,9.11l-2.62.19s-5,15.8-3.12,18.9,1.66-2.52,4.77-4.85-.49-3.48-.49-3.48l2.44-2.23s-.39,3.58.68,2.71,9.83-9.59,12.85-9.2-2.24,4.55-5.26,5.71-3.7,8.63-1.36,5.52,5.35-7.75,11.29-7.07,13.92,3.59,15.76,3.49c0,0-2.92,3.29-.58,2.91a2.91,2.91,0,0,0,2.63-2.14l2,1.85-.1,2.51s1.76.59,2.54-.09,5.64,4.94,5.64,4.94v4.26l3.31,3.3-.19,2.13,3.69,2.71.1,2.52s1,2.13,5,1.65l-.19,1.35s-1.56,1.75-.19,2.81.87,3.69.87,3.69l3.8.38s.48,1.07,2.53-.19c0,0,2,1.84,3.7-.1l2.14-.77,2.72,1.16a4.82,4.82,0,0,1,4.28-2.91s3-2,4.77.87.49,4.36,4.48,4.66c0,0,1.07,2.9,2.73,3S219,87.92,219,87.05h4l.68,3.29,3.51.1-.2,2.42s2.34,3.39,2.73-1.74l2.82-2.33.49-2.91,3-.48,3.6-4.26s8.67-1.07,13.63-7.37c0,0,6.23-5,6.23-1.84,0,0,6.91.78,11.09-2.13l3.7-.1s.39-2,4.67.2c0,0,20.74,2.9,27.84-3.39,0,0,3.8-3.1,6.33-2.81,0,0,1.46.48,2.43-1.55,0,0,3.11-.49,4.57,1.64s11.78-4.16,8,1-5.84,5.82-4.38,10.95-2.05,10.27-.2,11.72,10.12.1,12.26,1.94,4,1.26,7.21-.39,6.71-3.29,7.78,1.17,1.56,5.23,6.23,1.06,2.34-5.23,7.3-5.81,4,1.94,7.69-1.75,7.1,1.17,4.48,3.59-1.85,4.65.39,7.17,5.06,11.53,3.4,11.43c0,0-1,8-5.64-1.06,0,0,.1,7.75-7,2.81,0,0,3.5,7.65,6.42,5.62s5.84,1.45,8.18,2.32,2.24,2.13-.58,2.71,7,7.66,7,7.66l3.21.58s3.9,4.75-1.65,5-14-4.36-16.55-1c0,0-1.65,2.81-.58,3.87,0,0-3.5-3.39-4-5.62,0,0-2.63,6.5-8.18-1.45,0,0-1.75-1.84-1.26,3.1a5.56,5.56,0,0,1-2.82-.87c-1.27-.87-.88,4.07-1.85.87s-1-2.52-5-4.36-4.86-2.13-5.35.39,2.53,2.13.29,4.17-3.79.19-2,8.33c0,0,.68,2.42,2.43,2.71,0,0-2.72,3.1-7.3-1.06a46.9,46.9,0,0,1-7.78-9.69l-13.63-6.4-6.42-.29s-3-7.75-6.62-2.42c0,0-6.23-2.71-9.64,1.06a22.68,22.68,0,0,0-5,7.56c-.88,2-3.41,4.17-7.3,1.75s-11.87,0-10.51,4.07c0,0-3.41-3.49-7.2-3.49s-10.9-.49-14,1.64-3.79,13-3.79,13l-4.58.19a2.71,2.71,0,0,1-3,2.62c-3,0-4.57-1.07-3.31,1.06s.3,2.52-2.82,2.43,2.24,4.74-2.63,4.26,3.22,9.78-2.53,4.26-1.55-6.49-1.55-6.49.68-3.29,2.62-4.26c0,0-1.65-4.46,3.31-3.59l2.53-4.75.49-4.55a4.22,4.22,0,0,0-5.26,4c-.58,5-7-4.26-9.53-1.74l-.39,6-2.34,2-.1,3s-4.18,3.59-5.54,3.1-2.44,2.14-2.44,2.14-2.72-3.49-2-10c0,0-2.24-.68,1.56-6s-1-5.43-2-2-5.26,5.52-3.89,9.2-1.46,6.49-3.41,7.56a17.71,17.71,0,0,0-7.1,8.33c-1.37,3.87-2.44,2.13-3.31,5.62S177.18,194.5,172.8,197.5s-4.67,7.75-3.8,9.11-4.28-1-4.77-4.27c0,0-4.57-1.26-3.4-5.91s6.91-11.24,4.48-14.24-4.68,2-4.68,2-1.36.87-2,.19a3.38,3.38,0,0,0-3.7-.39c-1.07.78-2.43-.19-2.43-1.94s1.17-.77,1.07-5c0,0,7.79-4,1.56-11.53,0,0,9.44-.2.87-6.69l-.1-1.84s3.61-1.55,1.08-3.59-4.87-6.58-7-4-2.05-3.2-5.26-4.07-1.36,3.88-5.84-1,.2-1.74,2.53-5.71S139,140,139.42,135.3s-8.28-3.3-8.28-3.3l-.68-1.26-4.38.29-2.33-2.9-7.89-.29s-1.07-4.46-5.45-1.55-5.55-.2-5.55-.2-4.57-2.52-6-1-3.11-.87-3.11-.87-7.6-7.85-14.51-10.37S19.8,93.15,19.8,93.15l-.1-3.58s-2.14-9.21-4.57-10.86l-2.73.1-.09-1.94L10,76.68l-.19-3Z"/><path class="cls-3" d="M317,89.5c1,0,54.08-9.36,54.11-9.19h0l4,1.79a5.46,5.46,0,0,1,1.59,1.1h0a.45.45,0,0,1,0,.62c-1.57,1.76-9.36,10.29-15.72,12.68-5.12,1.93-18.12,5.59-38-2Z"/><path id="white" class="cls-1" d="M395.89,86.25h0a11.4,11.4,0,0,0-13.26-9.14h0L23,142.31a11.44,11.44,0,0,1-13.3-9.17l-5.48-30,365-66A17.37,17.37,0,0,1,389.46,51Z"/><path class="cls-2" d="M12.24,131.65a8.9,8.9,0,0,0,2.63,5.62,9.48,9.48,0,0,0,8,2.23l65.77-11.92a2.09,2.09,0,0,0,1-3.61l-12-11a2.06,2.06,0,0,1-.55-2.26q2.86-7.86,5.74-15.71a2.1,2.1,0,0,0-2.36-2.78l-75.65,14Q8.51,118.94,12.24,131.65Z"/><path id="white-2" data-name="white" class="cls-1" d="M74,103.7l-9.11-9.51a4.23,4.23,0,0,1-.84-4.58l6.42-15a4.23,4.23,0,0,0-4.66-5.82L17.2,77.49a17.29,17.29,0,0,0-14,20.1L9.7,133.14h0a11.38,11.38,0,0,1,9.21-13.23l52.74-9.12A4.23,4.23,0,0,0,74,103.7Z"/><path class="cls-3" d="M398.77,85.73h0l-6.44-35.26a20.29,20.29,0,0,0-23.6-16.26L67.63,88.68l5.53-12.94a7.15,7.15,0,0,0-7.87-9.83L16.67,74.62A20.16,20.16,0,0,0,3.62,83,20,20,0,0,0,.33,98.11l1,5.51h0l4.79,26.23.69,3.8h0a14.38,14.38,0,0,0,14.1,11.75,14.38,14.38,0,0,0,2.6-.24L312.6,92.76l20,18.26a3,3,0,0,0,2,.76,2.35,2.35,0,0,0,.52,0l52.11-9.42A14.29,14.29,0,0,0,398.77,85.73ZM8.42,86.31a14.37,14.37,0,0,1,9.29-6l48.61-8.71a1.32,1.32,0,0,1,1.46,1.82l-6.42,15a7.11,7.11,0,0,0,1.41,7.72l9.11,9.5a1.32,1.32,0,0,1-.73,2.22L18.38,117a14.37,14.37,0,0,0-7.87,4.26L6.09,97.07A14.27,14.27,0,0,1,8.42,86.31Zm14.05,53.13a8.49,8.49,0,0,1-9.89-6.81h0a8.47,8.47,0,0,1,6.83-9.84l52.74-9.13a7.12,7.12,0,0,0,4-12l-7-7.35L369.78,39.93a14.45,14.45,0,0,1,16.8,11.58L391,75.45l-.37-.16-.41-.18-.87-.33-.34-.11c-.41-.13-.82-.24-1.24-.33a.8.8,0,0,0-.15,0,10.68,10.68,0,0,0-1.11-.18l-.41,0c-.29,0-.59,0-.89-.06h-.44c-.31,0-.61,0-.91,0-.14,0-.27,0-.4,0a11.57,11.57,0,0,0-1.3.17ZM386.19,96.58l-50.68,9.17-15.68-14.3L383.16,80c.28,0,.57-.08.85-.11h.18a5,5,0,0,1,.67,0h.06a8.5,8.5,0,0,1,7.59,5.22l0,.06a6.45,6.45,0,0,1,.21.62c0,.07.05.13.07.19s.1.4.14.6a2,2,0,0,1,.05.24h0A8.44,8.44,0,0,1,386.19,96.58Z"/><g id="ribbon"><path class="cls-3" d="M37.1,83.8a4.77,4.77,0,0,0-3.67-.38,4.81,4.81,0,0,0-3.08,2c-.82,1.35.38,2.82,1,3.43a.43.43,0,0,0,.59,0,5.95,5.95,0,0,1,5.37-1.3.43.43,0,0,0,.51-.3C38.07,86.47,38.45,84.62,37.1,83.8Z"/><path class="cls-3" d="M29.8,87.1a.23.23,0,0,0-.43,0,6.17,6.17,0,0,0-.71,4.12,6.72,6.72,0,0,0,.28.78,7.64,7.64,0,0,0,1.72,2.52c.91.92,5.42,5.44,11.77,11.62a.58.58,0,0,0,1-.23l1.22-3.55a.56.56,0,0,0-.17-.62L43,100.42A164.54,164.54,0,0,1,30.8,89a4.61,4.61,0,0,1-.74-1.1,4.13,4.13,0,0,1-.26-.74Z"/><path class="cls-3" d="M36.16,99.94l.39.39Z"/><path class="cls-3" d="M36.59,100.36l.4.4Z"/><path class="cls-3" d="M37.91,101.66l-.89-.87.89.87Z"/><path class="cls-3" d="M34.7,98.12c-.9,2.38-1.84,4.75-1.84,4.75-.16.38-.41,1-.73,1.81a.56.56,0,0,0,.14.63L35,107.9a.58.58,0,0,0,.95-.23c.65-2,1.54-4.57,2.09-6.26Z"/><path class="cls-3" d="M34.6,98.4l.35.35Z"/><path class="cls-3" d="M35,98.77l.76.75Z"/><path class="cls-3" d="M35.74,99.53l.39.38Z"/><path class="cls-3" d="M36.54,94.68l-.06-.05Z"/><path class="cls-3" d="M37,95.08l0,0Z"/><polygon class="cls-3" points="36.09 94.26 36.09 94.26 36.09 94.26 36.09 94.26"/><path class="cls-3" d="M39,96.36a.41.41,0,0,0,.66-.18C40.37,94,40.84,92.5,41,92a7.59,7.59,0,0,0,.37-3,4.9,4.9,0,0,0-.12-.82,6.18,6.18,0,0,0-2.53-3.33.23.23,0,0,0-.36.24h0a4,4,0,0,1,.11.79,4.52,4.52,0,0,1-.14,1.31c-.52,2-1.25,4.25-2,6.44a.39.39,0,0,0,.11.42C37.33,94.82,38.2,95.62,39,96.36Z"/><path class="cls-3" d="M38.19,96.21l0,0Z"/><path class="cls-3" d="M37.78,95.83l0,0Z"/></g><path class="cls-4" d="M104.83,100.76a1.36,1.36,0,0,0-.46-.06l-1.12,0a7,7,0,0,0-1.3.11A4.72,4.72,0,0,0,98.46,103a6.84,6.84,0,0,0-.52,4.73,7,7,0,0,0,2.16,4.32,5.23,5.23,0,0,0,5.36.47,11.8,11.8,0,0,0,1.33-.79L107,109l3.28.17-.14,4.58a16.47,16.47,0,0,1-2.54,1.5,11.32,11.32,0,0,1-2.89.88,10.79,10.79,0,0,1-4.86-.14,7.18,7.18,0,0,1-3.71-2.47A11,11,0,0,1,94,108.44a10.49,10.49,0,0,1,.22-5.16,7.76,7.76,0,0,1,2.58-3.7,10,10,0,0,1,4.52-1.94,11.51,11.51,0,0,1,3.18-.17,11.77,11.77,0,0,1,2.88.69l1.66,4.22L106,103.65Z"/><path class="cls-4" d="M109.88,96.78l7.74-1.35.58,3.24-1.61.29.65,3.62,7-1.25-.65-3.62L122,98l-.59-3.27,7.74-1.39.59,3.27-2.37.43,1.91,10.66,2.36-.43.58,3.27-7.68,1.38-.58-3.27,1.55-.28-.67-3.77-7,1.25.67,3.77,1.55-.28.58,3.27L113,114l-.58-3.27,2.36-.42-1.9-10.66-2.37.42Z"/><path class="cls-4" d="M130.93,93l9.29-1.66.58,3.27-2.77.5,1.9,10.66,2.78-.5.58,3.27L134,110.23l-.59-3.27,2.8-.51-1.9-10.65-2.77.49Z"/><path class="cls-4" d="M142,91l9.2-1.64.58,3.27-2.89.52,1.91,10.66,4.32-.78.51-3,3.29.53-.85,5.36-13,2.32-.58-3.27,2.6-.46-1.91-10.66-2.6.46Z"/><path class="cls-4" d="M165.83,86.79a9.63,9.63,0,0,1,7.26,1.14,8.87,8.87,0,0,1,3.62,6.14,7.94,7.94,0,0,1-1.31,6.5,9.66,9.66,0,0,1-6.26,3.38l-8.3,1.48-.58-3.27,2.36-.43-1.9-10.66-2.37.43-.58-3.27Zm2.2,14a6.35,6.35,0,0,0,4-2,4.68,4.68,0,0,0,.78-4,6,6,0,0,0-2.11-4,5.34,5.34,0,0,0-4.28-.73l-1.92.34,1.9,10.66Z"/><path class="cls-4" d="M176.81,84.83l7.74-1.36.58,3.24-1.6.29.64,3.62,7-1.24-.65-3.63-1.6.29-.59-3.27,7.74-1.38.59,3.27-2.37.42,1.91,10.66,2.36-.42.59,3.27L191.44,100l-.58-3.27,1.55-.28-.68-3.76-7,1.24.67,3.77,1.55-.28.58,3.27L179.88,102l-.58-3.27,2.36-.43-1.9-10.66-2.37.43Z"/><path class="cls-4" d="M206.36,78.88a9.55,9.55,0,0,1,4.73.26,7.57,7.57,0,0,1,3.64,2.56,10.6,10.6,0,0,1,2,4.85,10.72,10.72,0,0,1-.2,5.25A7.64,7.64,0,0,1,214,95.49a10.3,10.3,0,0,1-9,1.61,7.57,7.57,0,0,1-3.64-2.58,10.72,10.72,0,0,1-2-4.86,10.59,10.59,0,0,1,.21-5.25,7.67,7.67,0,0,1,2.51-3.66A9.47,9.47,0,0,1,206.36,78.88ZM207,82a4.34,4.34,0,0,0-3.32,2.18,7.34,7.34,0,0,0-.39,4.75,7.44,7.44,0,0,0,2,4.34,5,5,0,0,0,7.2-1.28,7.41,7.41,0,0,0,.4-4.77,7.41,7.41,0,0,0-2-4.33A4.37,4.37,0,0,0,207,82Z"/><path class="cls-4" d="M225.49,75.47a9.57,9.57,0,0,1,4.73.25,7.68,7.68,0,0,1,3.64,2.56,12.26,12.26,0,0,1,1.8,10.11,7.57,7.57,0,0,1-2.5,3.68,10.26,10.26,0,0,1-9,1.62,7.61,7.61,0,0,1-3.64-2.59A12.31,12.31,0,0,1,218.67,81a7.73,7.73,0,0,1,2.51-3.65A9.35,9.35,0,0,1,225.49,75.47Zm.59,3.15a4.32,4.32,0,0,0-3.31,2.17,7.37,7.37,0,0,0-.39,4.76,7.51,7.51,0,0,0,2,4.34,5,5,0,0,0,7.2-1.29,7.47,7.47,0,0,0,.4-4.77,7.41,7.41,0,0,0-2-4.33A4.38,4.38,0,0,0,226.08,78.62Z"/><path class="cls-4" d="M244.15,72.8a9.6,9.6,0,0,1,7.25,1.14A8.84,8.84,0,0,1,255,80.07a8,8,0,0,1-1.31,6.51A9.66,9.66,0,0,1,247.45,90l-8.29,1.48-.58-3.27,2.36-.43L239,77.08l-2.37.43-.58-3.27Zm2.2,14a6.35,6.35,0,0,0,4-2,4.71,4.71,0,0,0,.78-4,6.07,6.07,0,0,0-2.11-4,5.31,5.31,0,0,0-4.28-.73l-1.92.34,1.9,10.66Z"/><path class="cls-4" d="M273.53,70.62a1.7,1.7,0,0,0-.46-.05c-.3,0-.68,0-1.12,0a7.17,7.17,0,0,0-1.31.12,4.76,4.76,0,0,0-3.49,2.22,6.88,6.88,0,0,0-.51,4.73,7,7,0,0,0,2.16,4.31,4.67,4.67,0,0,0,4,.91,4.78,4.78,0,0,0,1.34-.43,11.41,11.41,0,0,0,1.33-.8l.18-2.74L279,79l-.15,4.57a16.84,16.84,0,0,1-2.53,1.51,11.44,11.44,0,0,1-2.89.88,10.94,10.94,0,0,1-4.86-.14,7.2,7.2,0,0,1-3.71-2.48,11,11,0,0,1-2.08-5.06,10.48,10.48,0,0,1,.22-5.16,7.76,7.76,0,0,1,2.58-3.7,9.84,9.84,0,0,1,4.52-1.94,11.17,11.17,0,0,1,3.18-.18,12.76,12.76,0,0,1,2.88.69l1.66,4.22-3.06,1.27Z"/><path class="cls-4" d="M280.54,84.05,280,80.78l2.89-.52,2.36-11.42-2.28.4L282.34,66l7-1.25,7.89,13,2.57-.46.59,3.27-7.74,1.38-.59-3.27,1.44-.26L292.19,76l-5.64,1-.43,2.64,1.6-.28.59,3.27ZM287,74.48l3.94-.7L288,68.55Z"/><path class="cls-4" d="M298,63.17,306,61.75l7.9,10.86L312.33,64l-2.16.39-.58-3.27,8.15-1.46.58,3.27-2.69.48,2.49,13.93-4.32.77-9.53-12.7,1.91,10.69,2.45-.44.59,3.27-8.15,1.46-.59-3.27,2.43-.44L301,66l-2.39.42Z"/><path class="cls-4" d="M331.41,60.28a1.7,1.7,0,0,0-.46-.05c-.31,0-.68,0-1.12,0a7.17,7.17,0,0,0-1.31.12A4.74,4.74,0,0,0,325,62.54a6.89,6.89,0,0,0-.51,4.73,7,7,0,0,0,2.16,4.31,4.67,4.67,0,0,0,4,.91,4.89,4.89,0,0,0,1.34-.43,11.41,11.41,0,0,0,1.33-.8l.17-2.74,3.29.17-.15,4.57a17.35,17.35,0,0,1-2.53,1.51,11.44,11.44,0,0,1-2.89.88,10.94,10.94,0,0,1-4.86-.14A7.2,7.2,0,0,1,322.69,73,10.93,10.93,0,0,1,320.61,68a10.36,10.36,0,0,1,.22-5.16,7.76,7.76,0,0,1,2.58-3.7,9.84,9.84,0,0,1,4.52-1.94,11.17,11.17,0,0,1,3.18-.18,12.76,12.76,0,0,1,2.88.69l1.66,4.23-3.06,1.27Z"/><path class="cls-4" d="M336.48,56.3l13.35-2.38L352.61,59l-2.91,1.6-1.65-3-4.85.87.64,3.59,4.76-.85.58,3.24-4.76.85.69,3.83,5.63-1,.51-3,3.26.53L353.66,71l-14.13,2.53-.59-3.27,2.37-.42-1.88-10.67-2.36.42Z"/><path class="cls-4" d="M356.81,70.42l-.58-3.27,2.34-.42-1.91-10.66-2.33.42-.59-3.27,7.71-1.38a10.59,10.59,0,0,1,4.42-.05,4.17,4.17,0,0,1,2.47,1.66,7.66,7.66,0,0,1,1.13,3,5.75,5.75,0,0,1-.76,4.62,6.56,6.56,0,0,1-4.31,2.25l-2.48.44.41,2.34,1.4-.25.59,3.27Zm4.56-9.94,1.4-.25a6.71,6.71,0,0,0,1.9-.58,1.74,1.74,0,0,0,.88-1,3.12,3.12,0,0,0,0-1.57,2.71,2.71,0,0,0-.65-1.48,2.12,2.12,0,0,0-1.25-.58,6.93,6.93,0,0,0-1.82.1l-1.4.26Zm6.6,8L363.62,63l3.28-1.22,2.68,3,3-.55.59,3.27Z"/><polygon class="cls-5" points="129.79 139.09 132.41 138.63 131.25 132.12 128.66 132.59 127.49 126.08 139.61 123.91 140.77 130.42 138.18 130.88 139.34 137.39 141.93 136.92 143.1 143.43 130.94 145.59 129.79 139.09"/><path class="cls-3" d="M138.4,125.65l.63,3.55-2.59.46,1.69,9.47,2.59-.47.64,3.55-9.2,1.64-.63-3.55,2.62-.46-1.69-9.47-2.59.47-.64-3.55,9.17-1.64m2.43-3.48-3,.53-9.17,1.64-3,.53.54,3,.64,3.55.53,3,2.58-.47.64,3.55-2.62.46.53,3,.63,3.55.52,3,3-.52,9.2-1.64,3-.53-.54-3-.64-3.55-.53-3-2.59.47-.63-3.55,2.59-.46-.53-2.95-.63-3.55-.52-3Z"/><path class="cls-6" d="M146,124.56l14.7-2.63,1,5.81-3.05.54-.5-2.75-2.53.45,1.78,10,2.21-.4.54,3.06-8,1.43-.55-3.06,2.24-.4-1.78-9.95-2.51.44.49,2.76-3.05.54Z"/><path class="cls-6" d="M165.48,137.65l-.55-3.06,2.19-.39-1.78-9.95-2.18.39-.55-3.06,7.2-1.28a9.73,9.73,0,0,1,4.13,0,3.91,3.91,0,0,1,2.3,1.54,7.1,7.1,0,0,1,1.06,2.77,5.35,5.35,0,0,1-.71,4.32,6.13,6.13,0,0,1-4,2.1l-2.31.41.38,2.19,1.31-.24.55,3.06Zm4.25-9.29,1.31-.23a6.15,6.15,0,0,0,1.78-.55,1.59,1.59,0,0,0,.82-.9,3,3,0,0,0,0-1.47,2.53,2.53,0,0,0-.61-1.38,1.83,1.83,0,0,0-1.17-.54,5.67,5.67,0,0,0-1.7.09l-1.31.23Zm6.17,7.43-4.06-5.08,3.06-1.13,2.5,2.79,2.84-.51.54,3.06Z"/><path class="cls-6" d="M179.63,118.54l12.47-2.22,2.59,4.74-2.72,1.5-1.54-2.79-4.53.8.6,3.36,4.45-.79.54,3-4.44.8.63,3.57,5.27-.94.47-2.84,3.05.49-.79,5-13.21,2.35-.54-3.05,2.21-.4-1.75-10-2.21.4Z"/><path class="cls-6" d="M196.16,115.59l7.2-1.29.55,3.06-1.5.27.64,3.57,1.85-.33,2-4-1.12.2-.54-3.06,7.22-1.29.55,3.06-2.56.45-2.83,5.15,5.1,4.72,2.75-.49.55,3.06-8.32,1.48-.55-3.05,1.8-.33-3.18-3-2.18.38.61,3.44,1.51-.27.54,3.06-7.2,1.29-.55-3.06,2.21-.39-1.77-10-2.21.39Z"/><path class="cls-6" d="M215,112.22l7.2-1.28.54,3-1.5.27.64,3.57,1.86-.33,2-4-1.12.2-.55-3.06,7.23-1.29.55,3.06-2.57.46L226.45,118l5.09,4.72,2.76-.5.54,3.06-8.31,1.48-.55-3,1.8-.32-3.18-3-2.18.39.61,3.44,1.5-.27.55,3-7.2,1.29-.55-3.06,2.21-.39-1.78-10-2.21.4Z"/><path class="cls-6" d="M233.88,108.85l12.47-2.23,2.59,4.75-2.71,1.5-1.54-2.8-4.53.81.6,3.36,4.44-.8.54,3-4.44.8.64,3.57,5.26-.94.48-2.84,3,.49-.79,5-13.2,2.36-.55-3,2.21-.4-1.75-10-2.21.4Z"/><path class="cls-6" d="M257.94,104.55a9,9,0,0,1,6.78,1.07,8.27,8.27,0,0,1,3.39,5.73,7.41,7.41,0,0,1-1.23,6.07,9,9,0,0,1-5.85,3.16L253.28,122l-.54-3,2.21-.39-1.78-10L251,109l-.55-3ZM260,117.61a5.89,5.89,0,0,0,3.73-1.87,4.4,4.4,0,0,0,.74-3.71,5.71,5.71,0,0,0-2-3.74,5,5,0,0,0-4-.68l-1.8.32,1.77,10Z"/><path class="cls-6" d="M274.31,101.63,289,99l1,5.81-3.06.55-.49-2.76-2.54.46,1.78,10,2.21-.39.55,3-8,1.43-.54-3,2.24-.4-1.78-10-2.51.45.49,2.75-3.06.55Z"/><path class="cls-6" d="M291,98.66l7.23-1.27.54,3-1.5.27.6,3.38,6.52-1.16-.6-3.38-1.5.26-.55-3.05,7.23-1.29.55,3-2.21.4,1.78,9.95,2.21-.39.54,3.05-7.17,1.28-.55-3.05,1.45-.26-.63-3.52-6.52,1.17.63,3.52,1.44-.26.55,3-7.17,1.28-.55-3,2.21-.4-1.78-10-2.21.39Z"/><path class="cls-6" d="M311,95.07l12.47-2.23,2.59,4.75-2.72,1.5-1.54-2.79-4.52.8.59,3.36,4.45-.8.54,3-4.44.8.63,3.57,5.27-.94.48-2.84,3,.49-.79,5-13.21,2.36-.54-3,2.21-.4-1.75-10-2.21.4Z"/><path class="cls-6" d="M350.17,98.69a5.77,5.77,0,0,1-5.24,7.52,6.68,6.68,0,0,1-5.12-.76,6.51,6.51,0,0,1-2.48-4.47L336,93.76l-2.2.39-.55-3.05,7.23-1.3.54,3.06-1.5.27,1.38,7.69a3.13,3.13,0,0,0,1.16,2.2,3.21,3.21,0,0,0,2.32.3,2.82,2.82,0,0,0,2-1.16,3.67,3.67,0,0,0,.27-2.65l-1.33-7.42-1.5.27-.54-3.06L350.57,88l.55,3-2.24.4Z"/><path class="cls-6" d="M359.33,86.44a8,8,0,0,1,5.19.48,4.83,4.83,0,0,1,2.41,3.65A5.07,5.07,0,0,1,366,95a7.71,7.71,0,0,1-4.7,2.28l-1.37.25.4,2.21,2.56-.46.55,3.05-8.27,1.48-.54-3,2.18-.39-1.78-10-2.18.39-.55-3.06Zm1.42,8.11c2-.36,2.89-1.45,2.57-3.25q-.42-2.34-3.47-1.8l-1.31.24.9,5Z"/></g></g></svg>