<svg xmlns="http://www.w3.org/2000/svg" width="422.07" height="34.23" viewBox="0 0 422.07 34.23">
  <defs>
    <style>
      .cls-1 {
        fill: #fff200;
      }
    </style>
  </defs>
  <g id="Layer_2" data-name="Layer 2">
    <g id="branding">
      <g>
        <path class="cls-1" d="M29.23,29.23A17.14,17.14,0,1,1,29.23,5L21.7,12.53a6.5,6.5,0,1,0-4.56,11.09A6.31,6.31,0,0,0,21.7,21.7Z"/>
        <path class="cls-1" d="M45.75,34.23A17.12,17.12,0,1,1,62.88,17.14,17.11,17.11,0,0,1,45.75,34.23Zm0-10.61a6.51,6.51,0,1,0-6.49-6.48A6.48,6.48,0,0,0,45.75,23.62Z"/>
        <path class="cls-1" d="M66.82,33.55V.67h9.74V23.81h11v9.74Z"/>
        <path class="cls-1" d="M91,33.55V.67h20.74v9.79h-11v4h11v5.14h-11v4.22h11v9.74Z"/>
        <path class="cls-1" d="M141.49,23.36l7.6,8.69h-7.6L135,24.62v7.43h-5.72V3.28h7.27a10.65,10.65,0,0,1,5,20.08ZM136.53,9H135v9.92h1.55a5,5,0,1,0,0-9.92Z"/>
        <path class="cls-1" d="M165.55,32.64a15,15,0,1,1,15-14.95A15,15,0,0,1,165.55,32.64Zm0-5.75a9.2,9.2,0,1,0-9.24-9.2A9.19,9.19,0,0,0,165.55,26.89Z"/>
        <path class="cls-1" d="M193.15,32.05h-7.82V3.28h7.1A8.57,8.57,0,0,1,201,11.85a6.74,6.74,0,0,1-2.48,5.46,7,7,0,0,1,3.28,6.09A8.67,8.67,0,0,1,193.15,32.05ZM192.43,9h-1.38v5.76h1.38a2.88,2.88,0,1,0,0-5.76Zm.72,11.43h-2.1v5.92h2.1a2.93,2.93,0,0,0,2.94-2.94A3,3,0,0,0,193.15,20.42Z"/>
        <path class="cls-1" d="M206.84,32.05V3.28h15.33V9h-9.62v5.76h9.62v5.67h-9.62v5.92h9.62v5.71Z"/>
        <path class="cls-1" d="M239.85,23.36l7.6,8.69h-7.6l-6.51-7.43v7.43h-5.71V3.28h7.26a10.65,10.65,0,0,1,5,20.08ZM234.89,9h-1.55v9.92h1.55a5,5,0,1,0,0-9.92Z"/>
        <path class="cls-1" d="M258.79,9V32.05h-5.71V9h-4.79V3.28h15.33V9Z"/>
        <path class="cls-1" d="M288,19.59v14h-9.74V.67H299v9.79H288v4h11v5.14Z"/>
        <path class="cls-1" d="M303.8,33.55V.67h9.74V33.55Z"/>
        <path class="cls-1" d="M322,34.13a16.28,16.28,0,0,1-4.18-.48V25.49a2.35,2.35,0,0,0,1,.19,3.47,3.47,0,0,0,3.55-3.5,9,9,0,0,0-1.58-4.32,14.12,14.12,0,0,1-2.26-7.11c0-6.19,3.55-10.61,10.66-10.61a10,10,0,0,1,3.21.48V8.69a1.44,1.44,0,0,0-.38,0,2.92,2.92,0,0,0-3,3.12,6.8,6.8,0,0,0,1.4,3.31,14.28,14.28,0,0,1,2.73,8.21C333.17,29.09,329.09,34.13,322,34.13Z"/>
        <path class="cls-1" d="M352.76,33.55V21.84h-5.52V33.55h-9.75V.67h9.75V12.1h5.52V.67h9.74V33.55Z"/>
        <path class="cls-1" d="M368.26,33.55V.67H389v9.79H378v4h11v5.14H378v4.22h11v9.74Z"/>
        <path class="cls-1" d="M412.61,22.75l9.46,10.8H409l-5.42-6.19v6.19h-9.75V.67h12.29a12.18,12.18,0,0,1,12.2,12.2A11.78,11.78,0,0,1,412.61,22.75ZM405.36,9.94h-1.82v7.2h1.82a3.6,3.6,0,0,0,0-7.2Z"/>
      </g>
    </g>
  </g>
</svg>
