<svg xmlns="http://www.w3.org/2000/svg" width="46.2" height="52.73" viewBox="0 0 46.2 52.73">
  <defs>
    <style>
      .cls-1 {
        fill: #ffe3a6;
      }

      .cls-2 {
        fill: #4b6496;
      }
    </style>
  </defs>
  <g id="Layer_2" data-name="Layer 2">
    <g id="Landing">
      <g id="Content">
        <circle class="cls-1" cx="35.61" cy="8.74" r="8.74"/>
        <path class="cls-1" d="M35.61,19.88h0A10.59,10.59,0,0,1,46.2,30.47V52.73a0,0,0,0,1,0,0H25a0,0,0,0,1,0,0V30.47A10.59,10.59,0,0,1,35.61,19.88Z"/>
        <circle class="cls-1" cx="10.59" cy="8.74" r="8.74"/>
        <path class="cls-1" d="M10.59,19.88h0A10.59,10.59,0,0,1,21.18,30.47V52.73a0,0,0,0,1,0,0H0a0,0,0,0,1,0,0V30.47A10.59,10.59,0,0,1,10.59,19.88Z"/>
        <circle class="cls-2" cx="22.91" cy="30.73" r="5.57"/>
        <path class="cls-2" d="M22.91,39.22h0A6.76,6.76,0,0,1,29.67,46v6.76a0,0,0,0,1,0,0H16.16a0,0,0,0,1,0,0V46A6.76,6.76,0,0,1,22.91,39.22Z"/>
      </g>
    </g>
  </g>
</svg>
