<svg xmlns="http://www.w3.org/2000/svg" width="120.4" height="227.09" viewBox="0 0 120.4 227.09">
  <defs>
    <style>
      .cls-1 {
        fill: #ffb419;
      }
    </style>
  </defs>
  <g id="Layer_2" data-name="Layer 2">
    <g id="Landing">
      <g id="Content">
        <g id="ribbon">
          <path class="cls-1" d="M92.46,11.41C80.92-.12,65.42,0,60.2,0S39.48-.12,27.94,11.41c-10.39,10.4-2.79,26.34,1.31,33.18a4,4,0,0,0,5.31,1.55,54.86,54.86,0,0,1,51.28,0,4,4,0,0,0,5.31-1.55C95.25,37.75,102.85,21.81,92.46,11.41Z"/>
          <path class="cls-1" d="M19.27,25.22a2.14,2.14,0,0,0-3.78-1.36C8.9,31.71-.41,45.26,0,59.53a64.69,64.69,0,0,0,.77,7.69,72.45,72.45,0,0,0,10,26.52c6.13,10.27,36.82,61,80.47,130.83a5.34,5.34,0,0,0,9,.06l18.86-29.44a5.36,5.36,0,0,0-.15-6c-4.66-6.51-8.36-11.66-10.58-14.73,0,0-54.88-76.07-84.18-130.3A41.18,41.18,0,0,1,20,32.62a41.38,41.38,0,0,1-.73-7.33Z"/>
          <g>
            <path class="cls-1" d="M48.24,155.24c.89,1.43,1.78,2.88,2.69,4.36C50,158.12,49.13,156.67,48.24,155.24Z"/>
            <path class="cls-1" d="M51.18,160l2.74,4.46Z"/>
            <path class="cls-1" d="M60.2,174.63l-6-9.79,6,9.79Z"/>
            <path class="cls-1" d="M36.83,144.53a2.28,2.28,0,0,0-3.81-.09c-12.32,17.95-21,30-21,30-2.22,3.07-5.92,8.22-10.58,14.73a5.36,5.36,0,0,0-.15,6l18.86,29.44a5.35,5.35,0,0,0,9-.06C38.36,209.85,47,196,54.93,183.14a8.74,8.74,0,0,0,0-9.2C48.33,163.25,42.27,153.39,36.83,144.53Z"/>
            <path class="cls-1" d="M37.58,137.86c.79,1.3,1.61,2.63,2.44,4C39.19,140.49,38.37,139.16,37.58,137.86Z"/>
            <path class="cls-1" d="M40.16,142.07l5.18,8.45Z"/>
            <path class="cls-1" d="M45.39,150.59c.87,1.43,1.76,2.87,2.66,4.34C47.15,153.46,46.26,152,45.39,150.59Z"/>
          </g>
          <g>
            <path class="cls-1" d="M63.33,108.58l-.42-.64Z"/>
            <path class="cls-1" d="M66.32,113.14l-.38-.57C66.06,112.76,66.19,113,66.32,113.14Z"/>
            <polygon class="cls-1" points="60.2 103.78 60.2 103.78 60.2 103.79 60.2 103.78"/>
            <path class="cls-1" d="M81.92,129.14a3.76,3.76,0,0,0,6.33-.16c11.22-18.36,18.68-30.72,21.37-35.24a72.45,72.45,0,0,0,10-26.52,64.69,64.69,0,0,0,.77-7.69c.42-14.27-8.89-27.82-15.48-35.67a2.14,2.14,0,0,0-3.78,1.36v.07a40.39,40.39,0,0,1-.73,7.33,41.18,41.18,0,0,1-4.23,11.54C87.09,61,75.55,79.87,64,98A3.79,3.79,0,0,0,64,102C70.13,111.55,76.24,120.73,81.92,129.14Z"/>
            <path class="cls-1" d="M74.83,126l-.22-.33Z"/>
            <path class="cls-1" d="M72,121.66c-.08-.11-.15-.22-.22-.33C71.81,121.44,71.88,121.55,72,121.66Z"/>
          </g>
        </g>
      </g>
    </g>
  </g>
</svg>
