<?xml version="1.0" encoding="UTF-8"?>
<svg id="Layer_2" data-name="Layer 2" xmlns="http://www.w3.org/2000/svg" viewBox="0 0 300 96">
  <defs>
    <style>
      .cls-1 {
        fill: #106185;
      }

      .cls-2 {
        fill: #075a80;
      }

      .cls-3 {
        fill: #085b81;
      }

      .cls-4 {
        fill: #fdfefe;
      }

      .cls-5 {
        fill: #146387;
      }

      .cls-6 {
        fill: #40bcda;
      }

      .cls-7 {
        fill: #00567d;
      }

      .cls-8 {
        fill: #fdfdfd;
      }

      .cls-9 {
        fill: #01587e;
      }

      .cls-10 {
        fill: #0e5f84;
      }

      .cls-11 {
        fill: #065a80;
      }

      .cls-12 {
        fill: #00a6cd;
      }

      .cls-13 {
        fill: #b1e3ef;
      }

      .cls-14 {
        fill: #f8fafb;
      }

      .cls-15 {
        fill: #fefefe;
      }
    </style>
  </defs>
  <g id="Layer_1-2" data-name="Layer 1">
    <g>
      <path class="cls-15" d="M150.05,95.93c-48.8,0-97.6-.03-146.4,.07-2.84,0-3.66-.4-3.64-3.52C.16,62.69,.13,32.9,.04,3.12,.03,.74,.43,0,3.05,0,100.98,.08,198.92,.08,296.85,.02c2.38,0,3.13,.38,3.12,3-.12,29.95-.14,59.91,.03,89.87,.02,3.21-1.19,3.09-3.55,3.09-48.8-.06-97.6-.05-146.4-.05ZM21.09,42.99c-.4,1.51-1.79,1.84-2.94,2.46-6.74,3.62-8.83,9.49-8.09,16.73,.68,6.76,4.95,10.87,10.84,12.97,6.03,2.16,11.76,.82,16.43-3.91,1.03-1.04,1.91-2.38,3.67-2.28,.69,.72,1.33,1.49,2.06,2.17,5.75,5.3,12.41,7.13,19.82,4.44,7.32-2.66,11.59-8.04,12.59-15.89,1.01-7.96-2.92-13.64-8.48-18.59,1.99-.99,3.48-2.57,4.71-4.33,3.73-5.33,4.4-11.03,1.28-16.84-3.27-6.1-8.48-9.26-15.45-8.77-6.4,.44-11.34,3.32-13.62,9.72-.96,.05-1.92,.1-2.88,.15-.48-.86-.89-1.77-1.45-2.59-4.63-6.76-12.83-9.23-20.1-6.09-7.25,3.13-11.18,10.89-9.38,18.78,1.38,6.01,5.47,9.62,10.98,11.88Zm71.89,13.88c0,5.64,0,11.28,0,16.92,0,.17,0,.33,0,.5,.06,.81,.02,1.76,1.13,1.81,.35,.01,1.01-.5,1.03-.82,.47-5.52,2.65-1.38,3.9-.6,5.46,3.38,12.88,3.03,17.71-1.01,4.91-4.1,6.52-11.15,3.92-17.19-2.43-5.65-8.64-9.15-15.02-8.4-2.68,.31-5.12,1.3-7.33,2.88-.77,.55-1.41,1.9-2.38,1.42-1.21-.59-.51-2.06-.54-3.13-.09-2.98-.03-5.97-.06-8.96,0-.83-.1-1.86-1.06-1.94-1.48-.12-1.3,1.19-1.3,2.1-.03,5.47-.02,10.95-.02,16.42Zm47.35,6.27c3.66,0,7.32-.04,10.97,.02,1.89,.03,2.65-.55,2.42-2.63-.75-6.64-6.47-12.07-13.46-12.56-7.2-.51-13.92,4.3-15.26,10.92-1.55,7.67,1.87,14.46,8.63,17.11,6.6,2.59,14.68,.07,17.98-5.67,.43-.74,1.54-1.69,.38-2.51-.94-.66-1.85-.01-2.5,.89-.58,.81-1.15,1.64-1.85,2.33-6.19,6.18-17.4,3.35-19.84-4.92-.6-2.05-.49-3.11,2.04-3.01,3.49,.14,6.98,.03,10.47,.03Zm61.34,0c2.99,0,5.99,.01,8.98,0,4.81-.02,5.51-.96,4.09-5.48-1.92-6.11-8.47-10.27-15.23-9.67-6.99,.62-12.13,5.61-13.2,12.81-.96,6.46,3.08,13.06,9.38,15.32,6.35,2.28,13.93-.02,17.26-5.32,.55-.87,1.91-2.02,.53-2.96-1.19-.81-2.02,.4-2.68,1.43-.44,.69-1,1.33-1.59,1.9-6.15,5.92-16.83,3.3-19.65-4.75-.77-2.2-.75-3.45,2.13-3.32,3.32,.15,6.65,.04,9.98,.03Zm-44.37-1.08c0,3.99,0,7.97,0,11.96,0,1.05,.2,2.14,1.49,2.14,1.43,0,1.27-1.25,1.28-2.2,.03-4.48-.09-8.97,.05-13.45,.2-6.06,3.35-9.37,9.05-9.82,6.84-.53,10.69,2.73,11.03,9.69,.22,4.47,.08,8.97,.11,13.45,0,1.01,.06,2.18,1.31,2.33,1.51,.18,1.36-1.12,1.36-2.06,0-5.15,.23-10.31-.12-15.44-.41-6.01-4.6-9.95-10.64-10.65-3.59-.41-6.93,.27-10.03,2.19-.58,.36-1.46,2-2.06,.09-.36-1.15-.75-1.86-1.99-1.34-.91,.38-.85,1.33-.85,2.15,0,3.65,0,7.31,0,10.96Zm133.37-12.44c.15-.27-.3-.63-.73-.77-1.43-.48-2.17,.4-2.66,1.56-2.19,5.19-4.35,10.4-6.56,15.58-.71,1.67-1.56,3.29-2.34,4.93-2.01-1.08-1.98-3.3-2.73-5.04-2.23-5.17-4.3-10.42-6.39-15.65-.42-1.06-1.02-1.79-2.2-1.37-1.65,.59-.44,1.7-.18,2.41,1.68,4.5,3.29,9.05,5.31,13.4,3.07,6.62,5.34,13.11,.49,19.9-.43,.6-1.58,1.75,.12,2.29,1.02,.32,1.93-.08,2.28-1.3,.18-.63,.57-1.2,.84-1.8,4.55-10.49,9.1-20.99,13.65-31.48,.33-.76,.64-1.53,1.1-2.65Zm-63.71,26.64c1.89,.21,2.07-1.38,2.55-2.52,3.08-7.32,6.15-14.64,9.1-22,.32-.81,1.75-2.13-.08-2.86-1.48-.6-2.03,.73-2.47,1.79-2.23,5.34-4.41,10.7-6.62,16.05-.63,1.52-1.31,3.02-1.97,4.53-1.88-.93-1.93-2.93-2.62-4.54-2.15-5.01-4.2-10.07-6.37-15.08-.55-1.27-.9-3.5-2.81-2.7-1.78,.74-.15,2.31,.28,3.37,2.85,7.05,5.8,14.06,8.7,21.09,.49,1.19,.62,2.66,2.31,2.87Zm28.04-12.55c0,2.82-.13,5.66,.06,8.47,.09,1.4-1.12,3.92,1.51,3.86,2.11-.04,1.22-2.35,1.25-3.66,.1-5.64,.16-11.3,0-16.94-.08-2.91,.25-4.97,3.91-4.3,.48,.09,1,.03,1.49-.05,.64-.11,1.33-.26,1.34-1.13,0-.84-.7-1.28-1.28-1.19-6.08,1.01-5.72-2.94-5.41-6.89,.05-.66,.01-1.33-.02-1.99-.05-.89-.33-1.68-1.37-1.7-1.04-.02-1.36,.74-1.41,1.64-.04,.66-.02,1.33-.04,1.99-.09,3.38,1.33,7.78-4.83,7.05-.27-.03-.82,.58-.9,.96-.17,.83,.54,1.3,1.18,1.2,5.52-.83,4.58,2.99,4.55,6.19-.02,2.16,0,4.32,0,6.48Zm-12.09-1.23c0,3.8-.02,7.6,.02,11.41,0,.89-.26,2.2,1.23,2.13,1.02-.04,1.09-1.05,1.09-1.87,.01-7.77,.01-15.54,0-23.31,0-.82-.07-1.83-1.08-1.88-1.49-.08-1.24,1.22-1.25,2.12-.04,3.8-.02,7.6-.02,11.41Zm2.43-21.24c-.13-1.1,.35-2.71-1.1-2.9-1.73-.22-1.35,1.45-1.34,2.48,.02,1.05-.53,2.67,.97,2.88,1.72,.24,1.29-1.45,1.47-2.46Z"/>
      <path class="cls-7" d="M67,41.09c5.56,4.95,9.49,10.63,8.48,18.59-1,7.85-5.27,13.23-12.59,15.89-7.41,2.69-14.08,.86-19.82-4.44-.73-.68-1.38-1.44-2.06-2.17-2.8-4.4-3.94-9.2-3.78-14.41,.11-3.75-.15-7.51-.24-11.27,.06-4.81,.31-9.62,.11-14.41-.15-3.51,.8-6.17,3.97-7.86,.96-.05,1.92-.1,2.88-.15,2.64,1.95,3.33,4.58,3.21,7.78-.18,5.1,.02,10.22,.05,15.33-.02,4.63-.19,9.27-.02,13.9,.14,3.98,2.26,6.86,5.97,8.38,3.36,1.38,6.57,.81,9.3-1.5,2.85-2.42,4.17-5.54,3.17-9.3-1.08-4.11-3.86-6.59-8.01-7.11-2.9-.36-5.18-1.09-5.83-4.28,.2-3.95,2.38-5.3,6.21-5.31,3.3,0,6.03,1.52,9.03,2.33Z"/>
      <path class="cls-13" d="M36.97,43.28c.09,3.76,.35,7.52,.24,11.27-.15,5.21,.99,10.01,3.78,14.41-1.75-.1-2.64,1.24-3.67,2.28-4.67,4.73-10.4,6.07-16.43,3.91-5.89-2.1-10.15-6.21-10.84-12.97-.73-7.24,1.36-13.11,8.09-16.73,1.15-.62,2.53-.96,2.94-2.46,1.09-.23,1.9,.29,2.63,1,.54,2.61,2.07,4.17,4.81,4.12,2.7-.05,4.29-1.52,4.69-4.21,1.19-.6,2.46-.7,3.76-.61Z"/>
      <path class="cls-12" d="M23.72,43.99c-.73-.71-1.54-1.22-2.63-1-5.5-2.26-9.6-5.87-10.98-11.88-1.81-7.89,2.13-15.65,9.38-18.78,7.27-3.14,15.47-.67,20.1,6.09,.56,.81,.97,1.72,1.45,2.59-3.17,1.69-4.11,4.34-3.97,7.86,.2,4.79-.05,9.61-.11,14.41-1.3-.09-2.57,.02-3.76,.61-.14-3.12-1.56-4.88-4.89-5.02-3.72-.15-4.37,2.24-4.61,5.11Z"/>
      <path class="cls-6" d="M67,41.09c-2.99-.81-5.73-2.34-9.03-2.33-3.83,0-6,1.36-6.21,5.31-1.52-.33-3.05-.44-4.58-.09-.04-5.11-.23-10.23-.05-15.33,.11-3.2-.57-5.83-3.21-7.78,2.28-6.4,7.22-9.27,13.62-9.72,6.96-.48,12.18,2.68,15.45,8.77,3.11,5.81,2.45,11.51-1.28,16.84-1.23,1.76-2.72,3.34-4.71,4.33Z"/>
      <path class="cls-11" d="M92.99,56.87c0-5.47-.01-10.95,.02-16.42,0-.91-.17-2.22,1.3-2.1,.96,.08,1.06,1.12,1.06,1.94,.03,2.99-.03,5.97,.06,8.96,.03,1.07-.67,2.53,.54,3.13,.97,.48,1.61-.87,2.38-1.42,2.21-1.58,4.65-2.57,7.33-2.88,6.38-.75,12.59,2.75,15.02,8.4,2.6,6.04,.99,13.09-3.92,17.19-4.84,4.04-12.25,4.39-17.71,1.01-1.25-.77-3.43-4.91-3.9,.6-.03,.31-.69,.83-1.03,.82-1.12-.04-1.08-.99-1.13-1.81-.01-.17,0-.33,0-.5,0-5.64,0-11.28,0-16.92Zm26.16,5.42c-.03-6.9-5.1-11.83-12.03-11.72-6.8,.11-12.02,5.45-11.86,12.11,.17,6.69,5.57,11.9,12.25,11.81,6.79-.1,11.67-5.22,11.64-12.2Z"/>
      <path class="cls-11" d="M140.34,63.14c-3.49,0-6.99,.11-10.47-.03-2.54-.1-2.65,.95-2.04,3.01,2.43,8.27,13.65,11.1,19.84,4.92,.7-.7,1.27-1.53,1.85-2.33,.65-.9,1.56-1.55,2.5-.89,1.16,.82,.05,1.77-.38,2.51-3.3,5.73-11.38,8.25-17.98,5.67-6.75-2.64-10.18-9.44-8.63-17.11,1.34-6.62,8.06-11.42,15.26-10.92,6.98,.49,12.7,5.92,13.46,12.56,.23,2.07-.53,2.66-2.42,2.63-3.66-.06-7.31-.02-10.97-.01Zm-1.19-2.38c3.15,0,6.31-.06,9.46,.02,2.12,.06,2.62-.65,1.87-2.66-1.57-4.21-6.04-7.42-10.78-7.53-4.98-.12-9.54,2.58-11.33,6.65-1.08,2.45-.72,3.73,2.33,3.56,2.81-.16,5.64-.03,8.46-.04Z"/>
      <path class="cls-11" d="M201.68,63.15c-3.33,0-6.66,.12-9.98-.03-2.88-.13-2.9,1.12-2.13,3.32,2.82,8.05,13.49,10.67,19.65,4.75,.59-.57,1.15-1.21,1.59-1.9,.65-1.03,1.49-2.24,2.68-1.43,1.39,.94,.02,2.08-.53,2.96-3.32,5.3-10.9,7.61-17.26,5.32-6.3-2.27-10.34-8.86-9.38-15.32,1.07-7.2,6.21-12.19,13.2-12.81,6.77-.6,13.32,3.56,15.23,9.67,1.42,4.52,.72,5.45-4.09,5.48-2.99,.01-5.99,0-8.98,0Zm-1.14-2.38c3.15,0,6.29-.06,9.43,.02,2.13,.05,3.12-.33,2.09-2.78-1.8-4.31-6.02-7.36-10.8-7.4-5.1-.04-8.9,2.14-11.23,6.73-1.15,2.26-1.19,3.69,2.07,3.48,2.8-.19,5.63-.04,8.44-.04Z"/>
      <path class="cls-10" d="M157.31,62.06c0-3.65,0-7.31,0-10.96,0-.82-.06-1.77,.85-2.15,1.23-.51,1.62,.19,1.99,1.34,.6,1.9,1.48,.27,2.06-.09,3.1-1.92,6.44-2.6,10.03-2.19,6.04,.7,10.23,4.64,10.64,10.65,.35,5.13,.12,10.29,.12,15.44,0,.94,.15,2.24-1.36,2.06-1.25-.15-1.3-1.31-1.31-2.33-.03-4.48,.12-8.98-.11-13.45-.35-6.96-4.19-10.23-11.03-9.69-5.7,.44-8.85,3.76-9.05,9.82-.15,4.48-.02,8.97-.05,13.45,0,.95,.15,2.2-1.28,2.2-1.29,0-1.48-1.09-1.49-2.14,0-3.99,0-7.97,0-11.96Z"/>
      <path class="cls-2" d="M290.67,49.62c-.46,1.12-.77,1.89-1.1,2.65-4.55,10.5-9.1,20.99-13.65,31.48-.26,.61-.66,1.17-.84,1.8-.35,1.22-1.26,1.62-2.28,1.3-1.7-.54-.55-1.69-.12-2.29,4.85-6.78,2.58-13.27-.49-19.9-2.02-4.35-3.62-8.9-5.31-13.4-.26-.7-1.47-1.82,.18-2.41,1.18-.42,1.77,.3,2.2,1.37,2.09,5.23,4.15,10.48,6.39,15.65,.75,1.74,.73,3.96,2.73,5.04,.79-1.64,1.63-3.26,2.34-4.93,2.21-5.18,4.37-10.39,6.56-15.58,.49-1.16,1.22-2.04,2.66-1.56,.43,.14,.88,.5,.73,.77Z"/>
      <path class="cls-3" d="M226.96,76.26c-1.69-.21-1.82-1.68-2.31-2.87-2.91-7.03-5.86-14.04-8.7-21.09-.43-1.06-2.06-2.63-.28-3.37,1.91-.8,2.26,1.44,2.81,2.7,2.17,5.01,4.22,10.07,6.37,15.08,.69,1.6,.74,3.61,2.62,4.54,.66-1.51,1.34-3.01,1.97-4.53,2.21-5.35,4.39-10.71,6.62-16.05,.44-1.06,.99-2.39,2.47-1.79,1.82,.73,.4,2.06,.08,2.86-2.95,7.37-6.02,14.69-9.1,22-.48,1.14-.66,2.73-2.55,2.52Z"/>
      <path class="cls-5" d="M255,63.71c0-2.16-.02-4.32,0-6.48,.03-3.2,.97-7.03-4.55-6.19-.64,.1-1.35-.37-1.18-1.2,.08-.38,.63-.99,.9-.96,6.16,.72,4.74-3.68,4.83-7.05,.02-.66,0-1.33,.04-1.99,.05-.9,.37-1.66,1.41-1.64,1.04,.02,1.32,.81,1.37,1.7,.03,.66,.07,1.33,.02,1.99-.31,3.95-.67,7.91,5.41,6.89,.58-.1,1.29,.35,1.28,1.19,0,.87-.7,1.02-1.34,1.13-.49,.08-1.01,.14-1.49,.05-3.65-.67-3.99,1.39-3.91,4.3,.16,5.64,.1,11.29,0,16.94-.02,1.31,.87,3.62-1.25,3.66-2.63,.05-1.42-2.47-1.51-3.86-.19-2.81-.06-5.64-.06-8.47Z"/>
      <path class="cls-7" d="M242.9,62.48c0-3.8-.02-7.6,.02-11.41,0-.9-.24-2.2,1.25-2.12,1.01,.05,1.08,1.06,1.08,1.88,.01,7.77,.01,15.54,0,23.31,0,.82-.07,1.83-1.09,1.87-1.49,.07-1.22-1.24-1.23-2.13-.04-3.8-.02-7.6-.02-11.41Z"/>
      <path class="cls-1" d="M245.33,41.24c-.18,1.02,.26,2.71-1.47,2.46-1.49-.21-.95-1.83-.97-2.88-.02-1.03-.39-2.7,1.34-2.48,1.44,.19,.97,1.8,1.1,2.9Z"/>
      <path class="cls-8" d="M47.19,43.97c1.53-.35,3.06-.24,4.58,.09,.65,3.19,2.94,3.92,5.83,4.28,4.15,.52,6.93,3,8.01,7.11,.99,3.76-.32,6.88-3.17,9.3-2.73,2.32-5.94,2.88-9.3,1.5-3.72-1.52-5.83-4.4-5.97-8.38-.17-4.63,0-9.27,.02-13.9Z"/>
      <path class="cls-9" d="M23.72,43.99c.24-2.86,.89-5.26,4.61-5.11,3.33,.13,4.74,1.9,4.89,5.02-.4,2.7-1.98,4.17-4.69,4.21-2.74,.05-4.26-1.51-4.81-4.12Z"/>
      <path class="cls-4" d="M119.14,62.29c.04,6.99-4.85,12.11-11.64,12.2-6.68,.1-12.08-5.12-12.25-11.81-.16-6.66,5.06-12,11.86-12.11,6.93-.11,11.99,4.82,12.03,11.72Z"/>
      <path class="cls-14" d="M139.15,60.76c-2.82,0-5.65-.12-8.46,.03-3.05,.17-3.41-1.11-2.33-3.56,1.79-4.06,6.35-6.77,11.33-6.65,4.74,.12,9.21,3.32,10.78,7.53,.75,2,.25,2.72-1.87,2.66-3.15-.09-6.3-.02-9.46-.02Z"/>
      <path class="cls-14" d="M200.53,60.76c-2.81,0-5.64-.15-8.44,.04-3.25,.22-3.22-1.21-2.07-3.48,2.34-4.6,6.13-6.78,11.23-6.73,4.78,.04,9,3.1,10.8,7.4,1.03,2.46,.04,2.84-2.09,2.78-3.14-.08-6.29-.02-9.43-.02Z"/>
    </g>
  </g>
</svg>