<?xml version="1.0" encoding="UTF-8"?>
<svg id="Layer_2" data-name="Layer 2" xmlns="http://www.w3.org/2000/svg" viewBox="0 0 257.65 342.87">
  <defs>
    <style>
      .cls-1, .cls-2 {
        fill: #fff;
      }

      .cls-2 {
        font-family: Inter-Black, Inter;
        font-size: 40.15px;
        font-variation-settings: 'wght' 900, 'slnt' 0;
      }
    </style>
  </defs>
  <g id="Layer_1-2" data-name="Layer 1">
    <g>
      <path class="cls-1" d="M128.83,72.52c-45.99,0-83.27,37.28-83.27,83.26s37.28,83.26,83.27,83.26,83.26-37.27,83.26-83.26-37.28-83.26-83.26-83.26Zm0,150.32c-36.98,0-67.06-30.08-67.06-67.06s30.08-67.06,67.06-67.06,67.06,30.08,67.06,67.06-30.09,67.06-67.06,67.06Z"/>
      <path class="cls-1" d="M128.83,94.72c-33.67,0-61.06,27.39-61.06,61.06s27.39,61.06,61.06,61.06,61.06-27.39,61.06-61.06-27.4-61.06-61.06-61.06Zm-17.56,60.06v33.96c0,.74-.6,1.34-1.34,1.34h-3.65c-.74,0-1.34-.6-1.34-1.34v-33.96c-6.31-2.68-6.31-12.36-6.31-12.36,0-14.22,9.49-14.22,9.49-14.22,0,0,9.49,0,9.49,14.22,0,0,.31,9.29-6.34,12.36Zm23.01,33.53c0,.98-.79,1.77-1.77,1.77h-2.79c-.97,0-1.76-.79-1.76-1.77v-33.53h-4.53c-.99,0-1.8-.81-1.77-1.8,.45-15.14,6.54-31.5,12.62-31.5v66.83Zm24.74-37.99c0,2.46-2,4.46-4.46,4.46h-1.87v33.66c0,.91-.73,1.64-1.63,1.64h-3.07c-.9,0-1.63-.73-1.63-1.63v-33.67h-1.86c-2.46,0-4.46-1.99-4.46-4.46v-20.54c0-.88,.71-1.58,1.58-1.58s1.58,.7,1.58,1.58v13.75h2.11v-13.75c0-.88,.71-1.58,1.58-1.58h.01c.87,0,1.58,.7,1.58,1.58v13.75h2.11v-13.75c0-.88,.71-1.58,1.58-1.58s1.58,.7,1.58,1.58v13.75h2.11v-13.75c0-.88,.71-1.58,1.58-1.58s1.58,.7,1.58,1.58v20.54Z"/>
      <text class="cls-2" transform="translate(39.71 240.14) rotate(39.59) scale(.93 1)"><tspan x="0" y="0">H</tspan></text>
      <text class="cls-2" transform="translate(68.43 262.33) rotate(23.44) scale(.93 1)"><tspan x="0" y="0">U</tspan></text>
      <text class="cls-2" transform="translate(101.46 275.29) rotate(6.63) scale(.93 1)"><tspan x="0" y="0">N</tspan></text>
      <text class="cls-2" transform="translate(137.09 278.24) rotate(-10.7) scale(.93 1)"><tspan x="0" y="0">G</tspan></text>
      <text class="cls-2" transform="translate(173.23 269.77) rotate(-26.87) scale(.93 1)"><tspan x="0" y="0">E</tspan></text>
      <text class="cls-2" transform="translate(200.38 255.02) rotate(-41.06) scale(.93 1)"><tspan x="0" y="0">R</tspan></text>
      <text class="cls-2" transform="translate(69.87 80.05) rotate(-24.04) scale(.93 1)"><tspan x="0" y="0">L</tspan></text>
      <text class="cls-2" transform="translate(91.52 70.99) rotate(-15.44) scale(.93 1)"><tspan x="0" y="0">I</tspan></text>
      <text class="cls-2" transform="translate(103.79 66.9) rotate(-4.86) scale(.93 1)"><tspan x="0" y="0">O</tspan></text>
      <text class="cls-2" transform="translate(134.97 64.62) rotate(9.27) scale(.93 1)"><tspan x="0" y="0">N</tspan></text>
      <text class="cls-2" transform="translate(163.21 69.55) rotate(22.33) scale(.93 1)"><tspan x="0" y="0">S</tspan></text>
    </g>
  </g>
</svg>