<?xml version="1.0" encoding="utf-8"?>
<!-- Generator: Adobe Illustrator 26.0.0, SVG Export Plug-In . SVG Version: 6.00 Build 0)  -->
<svg version="1.1" id="Layer_1" xmlns="http://www.w3.org/2000/svg" xmlns:xlink="http://www.w3.org/1999/xlink" x="0px" y="0px"
	 viewBox="0 0 399 207" style="enable-background:new 0 0 399 207;" xml:space="preserve">
<style type="text/css">
	.st0{fill:#FFB419;}
	.st1{opacity:0.35;fill:#4B6496;}
	.st2{fill:#4B6496;}
	.st3{fill:#4B6496;stroke:#4B6496;stroke-miterlimit:10;}
	.st4{fill:#FFFFFF;}
	.st5{fill:#FFFFFF;stroke:#FFFFFF;stroke-width:0.5;stroke-miterlimit:10;}
</style>
<g>
	<g>
		<path class="st0" d="M395.9,86.3L395.9,86.3c1.1,6.2-3,12.1-9.2,13.2l-52.1,9.4l-21.1-19.2l69.1-12.5
			C388.8,76.1,394.8,80.1,395.9,86.3z"/>
		<path class="st1" d="M395.9,86.3L395.9,86.3c1.1,6.2-3,12.1-9.2,13.2l-52.1,9.4l-21.1-19.2l69.1-12.5
			C388.8,76.1,394.8,80.1,395.9,86.3z"/>
	</g>
	<g>
		<path id="FullUP_00000032626638932196092030000016374045553078202303_" class="st2" d="M5.1,75.1c0,0-1.7-4.2,2.5-5.8
			s4.2,0.8,10-2.5l5.8-0.8c0,0,1.7,0,9.2-6.7s11.7-9.1,17.5-7.5c5.8,1.7,17.5-0.8,21.7-4.2c4.2-3.3,7.5-8.3,10.9-8.3
			s10.4-0.9,12-5.2c1.6-4.4,3.3-5.4,6.1-6.8s6.1-4.2,6.9-4.9c0.8-0.8,2.4-2.4,6.9-3.5s7.3-7.4,9-8.9s5.2-4.1,8.4-5.1s6-3.2,9.5-3.5
			c3.5-0.3,17-3.4,22.9,1.2c5.8,4.6-0.2,5.5-5.3,4.8c0,0-6.4-1.4-6.6,0.9s1.6,2.5,1.6,2.5s-5.2,3.9-7.3,4.6
			c-2.1,0.7-4.1,4.4-6.5,5.5c-2.4,1.2-7.6,4.7-5.1,6.4c0,0-3.7,2.7-4.7,4.8c0,0-2.6,1.9-5.4,9.1l-2.6,0.2c0,0-5,15.8-3.1,18.9
			c1.8,3.1,1.7-2.5,4.8-4.8c3.1-2.3-0.5-3.5-0.5-3.5l2.4-2.2c0,0-0.4,3.6,0.7,2.7c1.1-0.9,9.8-9.6,12.8-9.2c3,0.4-2.2,4.6-5.3,5.7
			c-3,1.2-3.7,8.6-1.4,5.5c2.3-3.1,5.4-7.8,11.3-7.1s13.9,3.6,15.8,3.5c0,0-2.9,3.3-0.6,2.9c2.3-0.4,2.6-2.1,2.6-2.1l2,1.8l-0.1,2.5
			c0,0,1.8,0.6,2.5-0.1s5.6,4.9,5.6,4.9v4.3l3.3,3.3l-0.2,2.1l3.7,2.7l0.1,2.5c0,0,1,2.1,5,1.6l-0.2,1.4c0,0-1.6,1.7-0.2,2.8
			c1.4,1.1,0.9,3.7,0.9,3.7l3.8,0.4c0,0,0.5,1.1,2.5-0.2c0,0,2,1.8,3.7-0.1l2.1-0.8l2.7,1.2c0,0,1.2-2.9,4.3-2.9c0,0,3-2,4.8,0.9
			s0.5,4.4,4.5,4.7c0,0,1.1,2.9,2.7,3c1.7,0.1,3.1-3.4,3.1-4.3h4l0.7,3.3l3.5,0.1l-0.2,2.4c0,0,2.3,3.4,2.7-1.7l2.8-2.3l0.5-2.9
			l3-0.5l3.6-4.3c0,0,8.7-1.1,13.6-7.4c0,0,6.2-5,6.2-1.8c0,0,6.9,0.8,11.1-2.1l3.7-0.1c0,0,0.4-2,4.7,0.2c0,0,20.7,2.9,27.8-3.4
			c0,0,3.8-3.1,6.3-2.8c0,0,1.5,0.5,2.4-1.6c0,0,3.1-0.5,4.6,1.6c1.5,2.1,11.8-4.2,8,1c-3.8,5.1-5.8,5.8-4.4,10.9s-2,10.3-0.2,11.7
			c1.8,1.5,10.1,0.1,12.3,1.9c2.1,1.8,4,1.3,7.2-0.4s6.7-3.3,7.8,1.2c1.1,4.5,1.6,5.2,6.2,1.1c4.7-4.2,2.3-5.2,7.3-5.8
			s4,1.9,7.7-1.7c3.7-3.7,7.1,1.2,4.5,3.6c-2.6,2.4-1.8,4.7,0.4,7.2c2.2,2.5,5.1,11.5,3.4,11.4c0,0-1,7.9-5.6-1.1c0,0,0.1,7.8-7,2.8
			c0,0,3.5,7.7,6.4,5.6c2.9-2,5.8,1.5,8.2,2.3c2.3,0.9,2.2,2.1-0.6,2.7s7,7.7,7,7.7l3.2,0.6c0,0,3.9,4.7-1.7,5
			c-5.5,0.3-14-4.4-16.5-1c0,0-1.7,2.8-0.6,3.9c0,0-3.5-3.4-4-5.6c0,0-2.6,6.5-8.2-1.5c0,0-1.8-1.8-1.3,3.1c0,0-1.6,0-2.8-0.9
			s-0.9,4.1-1.8,0.9c-1-3.2-1-2.5-5-4.4c-4-1.8-4.9-2.1-5.4,0.4s2.5,2.1,0.3,4.2c-2.2,2-3.8,0.2-2,8.3c0,0,0.7,2.4,2.4,2.7
			c0,0-2.7,3.1-7.3-1.1c-4.6-4.2-7.8-9.7-7.8-9.7l-13.6-6.4l-6.4-0.3c0,0-3-7.8-6.6-2.4c0,0-6.2-2.7-9.6,1.1c-3.4,3.8-4.1,5.5-5,7.6
			s-3.4,4.2-7.3,1.7c-3.9-2.4-11.9,0-10.5,4.1c0,0-3.4-3.5-7.2-3.5s-10.9-0.5-14,1.6c-3.1,2.1-3.8,13-3.8,13l-4.6,0.2
			c0,0,0,2.6-3,2.6s-4.6-1.1-3.3,1.1c1.3,2.1,0.3,2.5-2.8,2.4c-3.1-0.1,2.2,4.7-2.6,4.3s3.2,9.8-2.5,4.3c-5.7-5.5-1.6-6.5-1.6-6.5
			s0.7-3.3,2.6-4.3c0,0-1.7-4.5,3.3-3.6l2.5-4.7l0.5-4.6c0,0-4.7-1.1-5.3,4s-7-4.3-9.5-1.7l-0.4,6l-2.3,2l-0.1,3
			c0,0-4.2,3.6-5.5,3.1c-1.4-0.5-2.4,2.1-2.4,2.1s-2.7-3.5-2-10c0,0-2.2-0.7,1.6-6s-1-5.4-1.9-2c-1,3.4-5.3,5.5-3.9,9.2
			c1.4,3.7-1.5,6.5-3.4,7.6c-1.9,1.1-5.7,4.5-7.1,8.3c-1.4,3.9-2.4,2.1-3.3,5.6c-0.9,3.5-11.8,24.7-16.2,27.7
			c-4.4,3-4.7,7.8-3.8,9.1c0.9,1.4-4.3-1-4.8-4.3c0,0-4.6-1.3-3.4-5.9s6.9-11.2,4.5-14.2s-4.7,2-4.7,2s-1.4,0.9-2,0.2
			c-0.7-0.7-2.6-1.2-3.7-0.4c-1.1,0.8-2.4-0.2-2.4-1.9c0-1.7,1.2-0.8,1.1-5c0,0,7.8-4,1.6-11.5c0,0,9.4-0.2,0.9-6.7l-0.1-1.8
			c0,0,3.6-1.6,1.1-3.6c-2.5-2-4.9-6.6-7-4c-2.1,2.6-2-3.2-5.3-4.1s-1.4,3.9-5.8-1c-4.5-4.8,0.2-1.7,2.5-5.7c2.3-4-2.3,1.3-1.9-3.4
			c0.4-4.7-8.3-3.3-8.3-3.3l-0.7-1.3l-4.4,0.3l-2.3-2.9l-7.9-0.3c0,0-1.1-4.5-5.5-1.6c-4.4,2.9-5.5-0.2-5.5-0.2s-4.6-2.5-6-1
			c-1.5,1.6-3.1-0.9-3.1-0.9s-7.6-7.8-14.5-10.4c-6.9-2.5-61.4-20.7-61.4-20.7l-0.1-3.6c0,0-2.1-9.2-4.6-10.9l-2.7,0.1l-0.1-1.9
			L10,76.7l-0.2-3L5.1,75.1z"/>
		<path class="st2" d="M317,89.6c1,0,54.1-9.4,54.1-9.2c0,0,0,0,0,0c0,0,2.6,1.2,4,1.8c0.6,0.3,1.1,0.6,1.6,1.1l0,0
			c0.2,0.2,0.2,0.4,0,0.6c-1.6,1.8-9.4,10.3-15.7,12.7c-5.1,1.9-18.1,5.6-38-2C323,94.6,323,94.5,317,89.6z"/>
	</g>
	<path id="white_00000165203689019719859240000011700496359787863437_" class="st0" d="M395.9,86.3L395.9,86.3
		c-1.1-6.2-7.1-10.3-13.3-9.1v0L23,142.4c-6.2,1.1-12.2-3-13.3-9.2l-5.5-30l365-66c9.4-1.7,18.5,4.5,20.2,13.9L395.9,86.3z"/>
	<path class="st1" d="M12.2,131.7c0.1,0.8,0.4,3.5,2.6,5.6c3.2,3.1,7.6,2.3,8,2.2c21.9-4,43.8-7.9,65.8-11.9c1.7-0.3,2.3-2.4,1-3.6
		c-4-3.6-8-7.3-12-10.9c-0.6-0.6-0.9-1.5-0.6-2.3c1.9-5.2,3.8-10.5,5.7-15.7c0.6-1.5-0.8-3.1-2.4-2.8l-75.7,14
		C7.3,114.8,9.8,123.2,12.2,131.7z"/>
	<path id="white_00000014633973080935150410000011758396161045180563_" class="st0" d="M74,103.8l-9.1-9.5c-1.2-1.2-1.5-3-0.8-4.6
		l6.4-15c1.3-3.1-1.3-6.4-4.7-5.8l-48.6,8.7c-9.4,1.7-15.7,10.7-14,20.1l6.5,35.6l0,0c-1.1-6.2,3-12.1,9.2-13.2l52.7-9.1
		C75,110.3,76.3,106.2,74,103.8z"/>
	<path class="st2" d="M398.8,85.8C398.8,85.8,398.8,85.8,398.8,85.8l-6.4-35.3c-1-5.3-4-9.9-8.4-13c-4.5-3.1-9.8-4.2-15.2-3.3
		L67.6,88.7l5.5-12.9c1-2.4,0.7-5.2-1-7.3c-1.6-2.1-4.3-3-6.9-2.6l-48.6,8.7c-5.3,1-10,3.9-13.1,8.4c-3.1,4.4-4.3,9.8-3.3,15.1
		l1,5.5c0,0,0,0,0,0l4.8,26.2l0.7,3.8c0,0,0,0,0,0h0c0.7,3.8,2.8,7,6,9.2c2.4,1.7,5.2,2.5,8.1,2.5c0.9,0,1.7-0.1,2.6-0.2l289.1-52.4
		l20,18.3c0.5,0.5,1.2,0.8,2,0.8c0.2,0,0.3,0,0.5,0l52.1-9.4C395,101,400.2,93.5,398.8,85.8z M8.4,86.4c2.2-3.2,5.5-5.3,9.3-6
		l48.6-8.7c0.1,0,0.2,0,0.3,0c0.5,0,0.9,0.3,1,0.5c0.2,0.2,0.5,0.7,0.2,1.3l-6.4,15c-1.1,2.6-0.6,5.7,1.4,7.7l9.1,9.5
		c0.5,0.5,0.4,1,0.3,1.3c-0.1,0.3-0.4,0.8-1,0.9l-52.8,9.1c-3.1,0.6-5.8,2.1-7.9,4.3L6.1,97.1C5.4,93.4,6.2,89.5,8.4,86.4z
		 M22.5,139.5c-2.2,0.4-4.5-0.1-6.4-1.4c-1.9-1.3-3.1-3.2-3.5-5.4c0,0,0,0,0,0c-0.8-4.6,2.2-9,6.8-9.8l52.7-9.1
		c2.6-0.5,4.8-2.3,5.6-4.8c0.8-2.5,0.2-5.3-1.6-7.2l-7-7.3L369.8,40c3.8-0.7,7.6,0.1,10.8,2.3c3.2,2.2,5.3,5.5,6,9.3l4.4,23.9
		c-0.1-0.1-0.2-0.1-0.4-0.2c-0.1-0.1-0.3-0.1-0.4-0.2c-0.3-0.1-0.6-0.2-0.9-0.3c-0.1,0-0.2-0.1-0.3-0.1c-0.4-0.1-0.8-0.2-1.2-0.3
		c0,0-0.1,0-0.1,0c-0.4-0.1-0.7-0.1-1.1-0.2c-0.1,0-0.3,0-0.4,0c-0.3,0-0.6,0-0.9-0.1c-0.1,0-0.3,0-0.4,0c-0.3,0-0.6,0-0.9,0
		c-0.1,0-0.3,0-0.4,0c-0.4,0-0.9,0.1-1.3,0.2L22.5,139.5z M386.2,96.6l-50.7,9.2l-15.7-14.3L383.2,80c0.3-0.1,0.6-0.1,0.8-0.1
		c0.1,0,0.1,0,0.2,0c0.2,0,0.5,0,0.7,0c0,0,0,0,0.1,0c3.3,0.1,6.3,2.2,7.6,5.2c0,0,0,0,0,0.1c0.1,0.2,0.1,0.4,0.2,0.6
		c0,0.1,0,0.1,0.1,0.2c0.1,0.2,0.1,0.4,0.1,0.6c0,0.1,0,0.2,0.1,0.2v0C393.9,91.4,390.8,95.8,386.2,96.6z"/>
	<g id="ribbon_00000013895622195624005610000000913475786665048207_">
		<g>
			<path class="st2" d="M37.1,83.9c-1.5-0.9-3.1-0.5-3.7-0.4s-2.2,0.5-3.1,2c-0.8,1.4,0.4,2.8,1,3.4c0.2,0.2,0.4,0.2,0.6,0
				c0.8-0.7,1.7-1.1,2.5-1.3c0.8-0.2,1.8-0.3,2.8,0c0.2,0.1,0.4-0.1,0.5-0.3C38.1,86.5,38.5,84.7,37.1,83.9z"/>
		</g>
		<g>
			<path class="st2" d="M29.8,87.2c-0.1-0.2-0.3-0.2-0.4,0c-0.5,1-1.1,2.6-0.7,4.1c0,0.1,0.1,0.4,0.3,0.8c0.6,1.3,1.3,2.1,1.7,2.5
				c0.9,0.9,5.4,5.4,11.8,11.6c0.3,0.3,0.8,0.2,0.9-0.2c0.4-1.2,0.8-2.4,1.2-3.6c0.1-0.2,0-0.5-0.2-0.6c-0.7-0.6-1.2-1-1.5-1.3
				c0,0-7.7-6.5-12.1-11.5c-0.2-0.2-0.5-0.6-0.7-1.1C29.9,87.6,29.8,87.3,29.8,87.2L29.8,87.2z"/>
		</g>
		<g>
			<g>
				<path class="st2" d="M36.2,100c0.1,0.1,0.3,0.3,0.4,0.4C36.4,100.3,36.3,100.1,36.2,100z"/>
			</g>
			<g>
				<path class="st2" d="M36.6,100.4c0.1,0.1,0.3,0.3,0.4,0.4C36.9,100.7,36.7,100.6,36.6,100.4z"/>
			</g>
			<g>
				<path class="st2" d="M37.9,101.7c-0.3-0.3-0.6-0.6-0.9-0.9C37.3,101.1,37.6,101.4,37.9,101.7L37.9,101.7z"/>
			</g>
			<g>
				<path class="st2" d="M34.7,98.2c-0.9,2.4-1.8,4.7-1.8,4.7c-0.2,0.4-0.4,1-0.7,1.8c-0.1,0.2,0,0.5,0.1,0.6
					c0.9,0.9,1.8,1.7,2.7,2.6c0.3,0.3,0.8,0.2,0.9-0.2c0.7-2,1.5-4.6,2.1-6.3C36.8,100.3,35.7,99.2,34.7,98.2z"/>
			</g>
			<g>
				<path class="st2" d="M34.6,98.5c0.1,0.1,0.2,0.2,0.4,0.4C34.8,98.7,34.7,98.6,34.6,98.5z"/>
			</g>
			<g>
				<path class="st2" d="M35,98.8c0.2,0.2,0.5,0.5,0.8,0.8C35.5,99.3,35.2,99.1,35,98.8z"/>
			</g>
			<g>
				<path class="st2" d="M35.7,99.6c0.1,0.1,0.3,0.3,0.4,0.4C36,99.8,35.9,99.7,35.7,99.6z"/>
			</g>
		</g>
		<g>
			<g>
				<path class="st2" d="M36.5,94.7C36.5,94.7,36.5,94.7,36.5,94.7C36.5,94.7,36.5,94.7,36.5,94.7z"/>
			</g>
			<g>
				<path class="st2" d="M37,95.1C37,95.1,36.9,95.1,37,95.1C36.9,95.1,37,95.1,37,95.1z"/>
			</g>
			<g>
				<polygon class="st2" points="36.1,94.3 36.1,94.3 36.1,94.3 				"/>
			</g>
			<g>
				<path class="st2" d="M39,96.4c0.2,0.2,0.6,0.1,0.7-0.2c0.7-2.2,1.2-3.7,1.3-4.2c0.2-0.5,0.5-1.6,0.4-3c0-0.4-0.1-0.7-0.1-0.8
					c-0.3-1.5-1.6-2.7-2.5-3.3c-0.2-0.1-0.4,0-0.4,0.2l0,0c0,0.1,0.1,0.4,0.1,0.8c0,0.6-0.1,1.1-0.1,1.3c-0.5,2-1.2,4.3-2,6.4
					c-0.1,0.2,0,0.3,0.1,0.4C37.3,94.9,38.2,95.7,39,96.4z"/>
			</g>
			<g>
				<path class="st2" d="M38.2,96.3C38.2,96.3,38.2,96.3,38.2,96.3C38.2,96.3,38.2,96.3,38.2,96.3z"/>
			</g>
			<g>
				<path class="st2" d="M37.8,95.9C37.8,95.9,37.8,95.9,37.8,95.9C37.8,95.9,37.8,95.9,37.8,95.9z"/>
			</g>
		</g>
	</g>
	<g>
		<g>
			<path class="st3" d="M104.8,100.8c0,0-0.2,0-0.5-0.1c-0.3,0-0.7,0-1.1,0c-0.4,0-0.9,0-1.3,0.1c-1.6,0.3-2.8,1-3.5,2.2
				s-0.9,2.8-0.5,4.7c0.4,2,1.1,3.4,2.2,4.3c1.1,0.9,2.4,1.2,4,0.9c0.5-0.1,0.9-0.2,1.3-0.4c0.4-0.2,0.8-0.5,1.3-0.8l0.2-2.7
				l3.3,0.2l-0.1,4.6c-0.9,0.6-1.7,1.1-2.5,1.5c-0.8,0.4-1.8,0.7-2.9,0.9c-1.8,0.3-3.4,0.3-4.9-0.1c-1.5-0.4-2.7-1.2-3.7-2.5
				c-1-1.2-1.7-2.9-2.1-5.1c-0.3-1.9-0.3-3.7,0.2-5.2s1.4-2.7,2.6-3.7c1.2-1,2.7-1.6,4.5-1.9c1.2-0.2,2.3-0.3,3.2-0.2
				c0.9,0.1,1.9,0.3,2.9,0.7l1.7,4.2l-3.1,1.3L104.8,100.8z"/>
			<path class="st3" d="M109.9,96.8l7.7-1.4l0.6,3.2l-1.6,0.3l0.6,3.6l7-1.2l-0.6-3.6l-1.6,0.3l-0.6-3.3l7.7-1.4l0.6,3.3l-2.4,0.4
				l1.9,10.7l2.4-0.4l0.6,3.3l-7.7,1.4l-0.6-3.3l1.5-0.3l-0.7-3.8l-7,1.2l0.7,3.8l1.5-0.3l0.6,3.3L113,114l-0.6-3.3l2.4-0.4
				l-1.9-10.7l-2.4,0.4L109.9,96.8z"/>
			<path class="st3" d="M130.9,93.1l9.3-1.7l0.6,3.3l-2.8,0.5l1.9,10.7l2.8-0.5l0.6,3.3l-9.3,1.7l-0.6-3.3l2.8-0.5l-1.9-10.7
				l-2.8,0.5L130.9,93.1z"/>
			<path class="st3" d="M142,91.1l9.2-1.6l0.6,3.3l-2.9,0.5l1.9,10.7l4.3-0.8l0.5-3l3.3,0.5l-0.8,5.4l-13,2.3l-0.6-3.3l2.6-0.5
				l-1.9-10.7l-2.6,0.5L142,91.1z"/>
			<path class="st3" d="M165.8,86.9c2.9-0.5,5.3-0.1,7.3,1.1c1.9,1.3,3.1,3.3,3.6,6.1c0.5,2.6,0,4.8-1.3,6.5
				c-1.3,1.7-3.4,2.9-6.3,3.4l-8.3,1.5l-0.6-3.3l2.4-0.4l-1.9-10.7l-2.4,0.4l-0.6-3.3L165.8,86.9z M168,100.8c1.8-0.3,3.2-1,4-2
				c0.8-1,1.1-2.3,0.8-4c-0.3-1.9-1-3.2-2.1-4c-1.1-0.8-2.5-1-4.3-0.7l-1.9,0.3l1.9,10.7L168,100.8z"/>
			<path class="st3" d="M176.8,84.9l7.7-1.4l0.6,3.2l-1.6,0.3l0.6,3.6l7-1.2l-0.6-3.6l-1.6,0.3l-0.6-3.3l7.7-1.4l0.6,3.3l-2.4,0.4
				l1.9,10.7l2.4-0.4l0.6,3.3l-7.7,1.4l-0.6-3.3l1.5-0.3l-0.7-3.8l-7,1.2l0.7,3.8l1.5-0.3l0.6,3.3l-7.7,1.4l-0.6-3.3l2.4-0.4
				l-1.9-10.7l-2.4,0.4L176.8,84.9z"/>
			<path class="st3" d="M206.4,78.9c1.7-0.3,3.3-0.2,4.7,0.3c1.4,0.5,2.7,1.3,3.6,2.6s1.7,2.8,2,4.9c0.4,2,0.3,3.7-0.2,5.2
				c-0.5,1.5-1.3,2.7-2.5,3.7s-2.6,1.6-4.3,1.9c-1.7,0.3-3.3,0.2-4.7-0.3c-1.4-0.5-2.7-1.3-3.6-2.6c-1-1.3-1.7-2.9-2-4.9
				c-0.4-2-0.3-3.8,0.2-5.2c0.5-1.5,1.3-2.7,2.5-3.7S204.7,79.3,206.4,78.9z M207,82.1c-1.6,0.3-2.7,1-3.3,2.2
				c-0.6,1.2-0.7,2.8-0.4,4.8c0.4,2,1,3.5,2,4.3c1,0.9,2.3,1.2,3.9,0.9c1.6-0.3,2.7-1,3.3-2.2c0.6-1.2,0.8-2.8,0.4-4.8
				c-0.4-2-1-3.4-2-4.3C209.9,82.1,208.6,81.8,207,82.1z"/>
			<path class="st3" d="M225.5,75.5c1.7-0.3,3.3-0.2,4.7,0.3s2.7,1.3,3.6,2.6c1,1.2,1.7,2.8,2,4.9c0.4,2,0.3,3.7-0.2,5.2
				c-0.5,1.5-1.3,2.7-2.5,3.7c-1.2,0.9-2.6,1.6-4.3,1.9c-1.7,0.3-3.3,0.2-4.7-0.3c-1.4-0.5-2.7-1.3-3.6-2.6c-1-1.3-1.7-2.9-2-4.9
				c-0.4-2-0.3-3.8,0.2-5.2s1.3-2.7,2.5-3.7C222.4,76.5,223.8,75.8,225.5,75.5z M226.1,78.7c-1.6,0.3-2.7,1-3.3,2.2
				c-0.6,1.2-0.7,2.8-0.4,4.8c0.4,2,1,3.5,2,4.3s2.3,1.2,3.9,0.9c1.6-0.3,2.7-1,3.3-2.2s0.8-2.8,0.4-4.8c-0.4-2-1-3.4-2-4.3
				C229,78.7,227.7,78.4,226.1,78.7z"/>
			<path class="st3" d="M244.1,72.9c2.9-0.5,5.3-0.1,7.3,1.1s3.1,3.3,3.6,6.1c0.5,2.6,0,4.8-1.3,6.5c-1.3,1.7-3.4,2.9-6.3,3.4
				l-8.3,1.5l-0.6-3.3l2.4-0.4L239,77.1l-2.4,0.4l-0.6-3.3L244.1,72.9z M246.3,86.8c1.8-0.3,3.2-1,4-2c0.8-1,1.1-2.3,0.8-4
				c-0.3-1.9-1-3.2-2.1-4c-1.1-0.8-2.5-1-4.3-0.7l-1.9,0.3l1.9,10.7L246.3,86.8z"/>
			<path class="st3" d="M273.5,70.7c0,0-0.2,0-0.5-0.1c-0.3,0-0.7,0-1.1,0c-0.4,0-0.9,0-1.3,0.1c-1.6,0.3-2.8,1-3.5,2.2
				c-0.7,1.2-0.9,2.8-0.5,4.7c0.4,2,1.1,3.4,2.2,4.3c1.1,0.9,2.4,1.2,4,0.9c0.5-0.1,0.9-0.2,1.3-0.4c0.4-0.2,0.9-0.5,1.3-0.8
				l0.2-2.7l3.3,0.2l-0.1,4.6c-0.9,0.6-1.7,1.1-2.5,1.5c-0.8,0.4-1.8,0.7-2.9,0.9c-1.8,0.3-3.4,0.3-4.9-0.1
				c-1.5-0.4-2.7-1.2-3.7-2.5c-1-1.2-1.7-2.9-2.1-5.1c-0.3-1.9-0.3-3.7,0.2-5.2c0.5-1.5,1.4-2.7,2.6-3.7c1.2-1,2.7-1.6,4.5-1.9
				c1.2-0.2,2.3-0.3,3.2-0.2c0.9,0.1,1.9,0.3,2.9,0.7l1.7,4.2l-3.1,1.3L273.5,70.7z"/>
			<path class="st3" d="M280.5,84.1l-0.6-3.3l2.9-0.5l2.4-11.4l-2.3,0.4l-0.6-3.3l7-1.3l7.9,13l2.6-0.5l0.6,3.3l-7.7,1.4l-0.6-3.3
				l1.4-0.3l-1.3-2.3l-5.6,1l-0.4,2.6l1.6-0.3l0.6,3.3L280.5,84.1z M287,74.5l3.9-0.7l-3-5.2L287,74.5z"/>
			<path class="st3" d="M298,63.2l7.9-1.4l7.9,10.9l-1.5-8.6l-2.2,0.4l-0.6-3.3l8.1-1.5l0.6,3.3l-2.7,0.5l2.5,13.9l-4.3,0.8
				l-9.5-12.7l1.9,10.7l2.5-0.4l0.6,3.3l-8.1,1.5l-0.6-3.3l2.4-0.4L301,66.1l-2.4,0.4L298,63.2z"/>
			<path class="st3" d="M331.4,60.3c0,0-0.2,0-0.5-0.1c-0.3,0-0.7,0-1.1,0c-0.4,0-0.9,0-1.3,0.1c-1.6,0.3-2.8,1-3.5,2.2
				c-0.7,1.2-0.9,2.8-0.5,4.7c0.4,2,1.1,3.4,2.2,4.3c1.1,0.9,2.4,1.2,4,0.9c0.5-0.1,0.9-0.2,1.3-0.4c0.4-0.2,0.8-0.5,1.3-0.8
				l0.2-2.7l3.3,0.2l-0.1,4.6c-0.9,0.6-1.7,1.1-2.5,1.5c-0.8,0.4-1.8,0.7-2.9,0.9c-1.8,0.3-3.4,0.3-4.9-0.1
				c-1.5-0.4-2.7-1.2-3.7-2.5c-1-1.2-1.7-2.9-2.1-5.1c-0.3-1.9-0.3-3.7,0.2-5.2c0.5-1.5,1.4-2.7,2.6-3.7c1.2-1,2.7-1.6,4.5-1.9
				c1.2-0.2,2.3-0.3,3.2-0.2c0.9,0.1,1.9,0.3,2.9,0.7l1.7,4.2l-3.1,1.3L331.4,60.3z"/>
			<path class="st3" d="M336.5,56.4l13.3-2.4l2.8,5.1l-2.9,1.6l-1.6-3l-4.8,0.9l0.6,3.6l4.8-0.8l0.6,3.2l-4.8,0.9l0.7,3.8l5.6-1
				l0.5-3l3.3,0.5l-0.8,5.4l-14.1,2.5l-0.6-3.3l2.4-0.4l-1.9-10.7l-2.4,0.4L336.5,56.4z"/>
			<path class="st3" d="M356.8,70.5l-0.6-3.3l2.3-0.4l-1.9-10.7l-2.3,0.4l-0.6-3.3l7.7-1.4c1.8-0.3,3.3-0.3,4.4-0.1
				c1.1,0.3,1.9,0.8,2.5,1.7c0.5,0.8,0.9,1.8,1.1,3c0.3,1.9,0.1,3.5-0.8,4.6c-0.9,1.1-2.3,1.9-4.3,2.2l-2.5,0.4l0.4,2.3l1.4-0.2
				l0.6,3.3L356.8,70.5z M361.4,60.5l1.4-0.3c0.8-0.1,1.5-0.3,1.9-0.6c0.4-0.2,0.7-0.6,0.9-1c0.1-0.4,0.2-0.9,0-1.6
				c-0.1-0.7-0.3-1.2-0.7-1.5c-0.3-0.3-0.7-0.5-1.2-0.6c-0.5-0.1-1.1,0-1.8,0.1l-1.4,0.3L361.4,60.5z M368,68.5l-4.3-5.4l3.3-1.2
				l2.7,3l3-0.5l0.6,3.3L368,68.5z"/>
		</g>
	</g>
	<g>
		<g>
			<g>
				<polygon class="st4" points="129.8,139.1 132.4,138.7 131.2,132.2 128.7,132.7 127.5,126.1 139.6,124 140.8,130.5 138.2,130.9 
					139.3,137.5 141.9,137 143.1,143.5 130.9,145.7 				"/>
				<path class="st2" d="M138.4,125.7l0.6,3.5l-2.6,0.5l1.7,9.5l2.6-0.5l0.6,3.6l-9.2,1.6l-0.6-3.5l2.6-0.5l-1.7-9.5l-2.6,0.5
					l-0.6-3.6L138.4,125.7 M140.8,122.2l-3,0.5l-9.2,1.6l-3,0.5l0.5,3l0.6,3.6l0.5,3l2.6-0.5l0.6,3.5l-2.6,0.5l0.5,3l0.6,3.5l0.5,3
					l3-0.5l9.2-1.6l3-0.5l-0.5-3l-0.6-3.6l-0.5-3l-2.6,0.5l-0.6-3.6l2.6-0.5l-0.5-3l-0.6-3.5L140.8,122.2L140.8,122.2z"/>
			</g>
		</g>
		<path class="st5" d="M146,124.6l14.7-2.6l1,5.8l-3.1,0.5l-0.5-2.8l-2.5,0.5l1.8,10l2.2-0.4l0.5,3.1l-8,1.4l-0.5-3.1l2.2-0.4
			l-1.8-10l-2.5,0.4l0.5,2.8l-3.1,0.5L146,124.6z"/>
		<path class="st5" d="M165.5,137.7l-0.5-3.1l2.2-0.4l-1.8-10l-2.2,0.4l-0.5-3.1l7.2-1.3c1.7-0.3,3.1-0.3,4.1,0
			c1,0.3,1.8,0.8,2.3,1.5c0.5,0.8,0.9,1.7,1.1,2.8c0.3,1.8,0.1,3.3-0.7,4.3c-0.8,1.1-2.1,1.8-4,2.1l-2.3,0.4l0.4,2.2l1.3-0.2
			l0.5,3.1L165.5,137.7z M169.7,128.4l1.3-0.2c0.8-0.1,1.4-0.3,1.8-0.5c0.4-0.2,0.7-0.5,0.8-0.9c0.1-0.4,0.1-0.9,0-1.5
			c-0.1-0.6-0.3-1.1-0.6-1.4c-0.3-0.3-0.7-0.5-1.2-0.5c-0.5-0.1-1,0-1.7,0.1l-1.3,0.2L169.7,128.4z M175.9,135.9l-4.1-5.1l3.1-1.1
			l2.5,2.8l2.8-0.5l0.5,3.1L175.9,135.9z"/>
		<path class="st5" d="M179.6,118.6l12.5-2.2l2.6,4.7l-2.7,1.5l-1.5-2.8l-4.5,0.8l0.6,3.4l4.4-0.8l0.5,3L187,127l0.6,3.6l5.3-0.9
			l0.5-2.8l3,0.5l-0.8,5l-13.2,2.4l-0.5-3.1l2.2-0.4l-1.8-10l-2.2,0.4L179.6,118.6z"/>
		<path class="st5" d="M196.2,115.7l7.2-1.3l0.5,3.1l-1.5,0.3l0.6,3.6l1.9-0.3l2-4l-1.1,0.2l-0.5-3.1l7.2-1.3l0.5,3.1l-2.6,0.5
			l-2.8,5.1l5.1,4.7l2.8-0.5l0.5,3.1l-8.3,1.5l-0.5-3.1l1.8-0.3l-3.2-3l-2.2,0.4l0.6,3.4l1.5-0.3l0.5,3.1l-7.2,1.3l-0.5-3.1l2.2-0.4
			l-1.8-10l-2.2,0.4L196.2,115.7z"/>
		<path class="st5" d="M215,112.3l7.2-1.3l0.5,3.1l-1.5,0.3l0.6,3.6l1.9-0.3l2-4l-1.1,0.2l-0.5-3.1l7.2-1.3l0.5,3.1l-2.6,0.5
			l-2.8,5.1l5.1,4.7l2.8-0.5l0.5,3.1l-8.3,1.5l-0.5-3.1l1.8-0.3l-3.2-3l-2.2,0.4l0.6,3.4l1.5-0.3l0.5,3.1l-7.2,1.3l-0.5-3.1l2.2-0.4
			l-1.8-10l-2.2,0.4L215,112.3z"/>
		<path class="st5" d="M233.9,108.9l12.5-2.2l2.6,4.7l-2.7,1.5l-1.5-2.8l-4.5,0.8l0.6,3.4l4.4-0.8l0.5,3l-4.4,0.8l0.6,3.6l5.3-0.9
			l0.5-2.8l3,0.5l-0.8,5l-13.2,2.4l-0.5-3.1l2.2-0.4l-1.8-10l-2.2,0.4L233.9,108.9z"/>
		<path class="st5" d="M257.9,104.6c2.7-0.5,5-0.1,6.8,1.1c1.8,1.2,2.9,3.1,3.4,5.7c0.4,2.4,0,4.4-1.2,6.1c-1.2,1.6-3.2,2.7-5.9,3.2
			l-7.7,1.4l-0.5-3.1l2.2-0.4l-1.8-10L251,109l-0.5-3.1L257.9,104.6z M260,117.7c1.7-0.3,3-0.9,3.7-1.9s1-2.2,0.7-3.7
			c-0.3-1.7-1-3-2-3.7c-1-0.7-2.3-1-4-0.7l-1.8,0.3l1.8,10L260,117.7z"/>
		<path class="st5" d="M274.3,101.7l14.7-2.6l1,5.8l-3.1,0.5l-0.5-2.8l-2.5,0.5l1.8,10l2.2-0.4l0.5,3.1l-8,1.4l-0.5-3.1l2.2-0.4
			l-1.8-10l-2.5,0.4l0.5,2.8l-3.1,0.5L274.3,101.7z"/>
		<path class="st5" d="M290.9,98.7l7.2-1.3l0.5,3l-1.5,0.3l0.6,3.4l6.5-1.2l-0.6-3.4l-1.5,0.3l-0.5-3.1l7.2-1.3l0.5,3.1l-2.2,0.4
			l1.8,10l2.2-0.4l0.5,3.1l-7.2,1.3l-0.5-3.1l1.4-0.3l-0.6-3.5l-6.5,1.2l0.6,3.5l1.4-0.3l0.5,3.1l-7.2,1.3l-0.5-3.1l2.2-0.4l-1.8-10
			l-2.2,0.4L290.9,98.7z"/>
		<path class="st5" d="M311,95.1l12.5-2.2l2.6,4.7l-2.7,1.5l-1.5-2.8l-4.5,0.8l0.6,3.4l4.4-0.8l0.5,3l-4.4,0.8l0.6,3.6l5.3-0.9
			l0.5-2.8l3,0.5l-0.8,5l-13.2,2.4l-0.5-3.1l2.2-0.4l-1.8-10l-2.2,0.4L311,95.1z"/>
		<path class="st5" d="M350.2,98.8c0.4,2.1,0.1,3.8-0.8,5s-2.4,2.1-4.5,2.5c-2.1,0.4-3.8,0.1-5.1-0.8c-1.3-0.9-2.1-2.4-2.5-4.5
			l-1.3-7.2l-2.2,0.4l-0.5-3.1l7.2-1.3l0.5,3.1l-1.5,0.3l1.4,7.7c0.2,1.1,0.6,1.8,1.2,2.2c0.6,0.4,1.4,0.5,2.3,0.3
			c0.9-0.2,1.6-0.6,2-1.2c0.4-0.6,0.5-1.5,0.3-2.7l-1.3-7.4l-1.5,0.3l-0.5-3.1l7.3-1.3l0.5,3.1l-2.2,0.4L350.2,98.8z"/>
		<path class="st5" d="M359.3,86.5c2.2-0.4,3.9-0.2,5.2,0.5c1.3,0.7,2.1,1.9,2.4,3.7c0.3,1.8,0,3.2-1,4.4c-1,1.1-2.5,1.9-4.7,2.3
			l-1.4,0.2l0.4,2.2l2.6-0.5l0.5,3.1l-8.3,1.5l-0.5-3.1l2.2-0.4l-1.8-10l-2.2,0.4l-0.5-3.1L359.3,86.5z M360.7,94.6
			c2-0.4,2.9-1.4,2.6-3.2c-0.3-1.6-1.4-2.2-3.5-1.8l-1.3,0.2l0.9,5L360.7,94.6z"/>
	</g>
</g>
</svg>
