<svg xmlns="http://www.w3.org/2000/svg" viewBox="0 0 133.58 154.38">
    <defs>
        <style>.cls-1{fill:#ffe3a6;}.cls-2{fill:none;stroke:#4b6496;stroke-linecap:round;stroke-linejoin:round;stroke-width:10px;}.cls-3{fill:#4b6496;}
        </style>
    </defs>
    <g id="Layer_2" data-name="Layer 2">
        <g id="branding">
            <rect class="cls-1" x="5" y="5" width="123.58" height="144.38" rx="27.88"/><line class="cls-2" x1="5" y1="32.88" x2="128.58" y2="32.88"/><line class="cls-2" x1="32.88" y1="5" x2="32.88" y2="149.38"/><path class="cls-3" d="M64.83,77.87a10.35,10.35,0,0,0-2.72-.55,8.48,8.48,0,0,0-2.8.47c-.7.78-1.79,1.48-2.1,2.56,2.57,1.79,6.3,1.87,7.93,5.29v.24a7.64,7.64,0,0,1-3.26,6.06c-1.48.54-4.9,2.72-7.63,2.72a3.31,3.31,0,0,1-2.48-.93c-.39-.86-1.64-1.48-1.64-2.57a2.28,2.28,0,0,1,.16-.7c1.24-1.63,7.93-.54,8.32-3.88-3.19-.7-6.92-2.73-7.62-6.3.31-4,5-7,8.4-8.32a7,7,0,0,0,1.24.07c.94,0,1.94-.07,3-.07,1.63,0,3.11.31,3.65,2.17a2.58,2.58,0,0,1,.23.94C67.47,76.54,66,77.24,64.83,77.87Zm-8.55,38.95c-.54,1.56-1.41,2.88-3.35,2.88a3.43,3.43,0,0,1-2.41-3.81,23.64,23.64,0,0,1,.39-3.42c1.87-4.67,2-10.11,4-14.77a2.28,2.28,0,0,1,2.34-1.79,3.65,3.65,0,0,1,3.34,2.49h.08C59,104.46,57,110.45,56.28,116.82Zm9.33-48.67a3.31,3.31,0,0,1-2.1,1.08,1.45,1.45,0,0,1-1.09-.38c-1.63-.86-2.18-1.87-2.18-3,0-2,1.87-4.28,1.79-6.45v-.7c1.32-3.58,1.72-7.7,2.65-11.51a2.17,2.17,0,0,1,1.71-.78,3.14,3.14,0,0,1,2.48,1.48H69A14.55,14.55,0,0,1,69,49.8C69,56,66.7,62,65.61,68.15Z"/><path class="cls-3" d="M98.28,90.85c-2.49,6.3-8.63,12.83-15.24,14.93-1.24-1-3.19-.46-4.12-2.25a2.13,2.13,0,0,1-.08-.7c0-2.34,3-2.1,4.51-3A22,22,0,0,0,93.54,88.13,4.52,4.52,0,0,0,90,87a28.53,28.53,0,0,0-4,.47c-3.11,1.17-6.61,1.48-9.48,3.42-1.64-.54-3.74-1-4.36-2.87a14.08,14.08,0,0,1-.47-3c0-.78.08-1.55.08-2.33A10.86,10.86,0,0,0,71.53,80a7.25,7.25,0,0,0,.39-2.64c0-1.17-.16-2.41-.16-3.66,0-1.71.31-3.26,1.94-4.12,7.63-.31,13.77-4.27,20.85-6a2.07,2.07,0,0,1,.7-.08c1.39,0,2.1,1.17,2.72,2.25a2.45,2.45,0,0,1,0,1A3.93,3.93,0,0,1,95.71,70,47,47,0,0,0,77.83,76.7a21.58,21.58,0,0,0-.55,3.89,16.25,16.25,0,0,0,.47,3.89,27.87,27.87,0,0,1,11.82-3,13.59,13.59,0,0,1,7.31,2,6,6,0,0,1,1.79,4.66v.08A10.57,10.57,0,0,1,98.28,90.85Z"/>
        </g>
    </g>
</svg>
